<?xml version="1.0" encoding="utf-8"?>
<!-- Generator: Adobe Illustrator 23.0.1, SVG Export Plug-In . SVG Version: 6.00 Build 0)  -->
<svg version="1.1" id="Camada_1" xmlns="http://www.w3.org/2000/svg" xmlns:xlink="http://www.w3.org/1999/xlink" x="0px" y="0px"
     viewBox="0 0 1000 1000" style="enable-background:new 0 0 1000 1000;" xml:space="preserve">
<style type="text/css">
    .st0{fill:#F29320;}
    .st1{fill:#EE5A27;}
    .st2{fill:#FFFFFF;}
    .st3{fill:none;stroke:#FFFFFF;stroke-width:12;stroke-miterlimit:10;}
    .st4{fill:#9B6299;}
    .st5{fill:#8F288D;}
</style>
<g>
    <path class="st0" d="M1000,0v1000H560.2c0,0-0.1,0-0.2,0c-1.5,0-10-0.4-23.7-2.1c-0.1,0-0.1,0-0.2,0C91.6,956,13.7,760.3,1.9,717.7
        V0H1000z"/>
    <path class="st1" d="M536.1,997.9C91.6,956,13.7,760.3,1.9,717.7c-1.4-4.9-1.8-7.8-1.9-8.2c0.6,1.1,1.3,2.2,1.9,3.3
        C69.6,827.6,174.9,753,174.9,753C280.7,949.1,469.4,989.6,536.1,997.9z"/>
</g>
<path class="st2" d="M221,556.5"/>
<path class="st3" d="M474.1,658.4c0,0,104.5,58.1,187-48.8"/>
<g>
    <circle class="st2" cx="295.3" cy="457.9" r="100.2"/>
    <ellipse class="st4" cx="318" cy="457.9" rx="80.1" ry="76.4"/>
    <circle class="st5" cx="326.6" cy="457.9" r="72.4"/>
    <circle class="st2" cx="363.5" cy="436.3" r="28.2"/>
    <circle class="st2" cx="311.7" cy="455" r="6.4"/>
</g>
<g>
    <circle class="st2" cx="691" cy="455" r="100.2"/>
    <ellipse class="st4" cx="669" cy="449.6" rx="80.1" ry="76.4"/>
    <circle class="st5" cx="663.2" cy="445.8" r="72.4"/>
    <circle class="st2" cx="619" cy="433.5" r="28.2"/>
    <circle class="st2" cx="669" cy="455" r="6.4"/>
</g>
</svg>

