<svg id="Layer_1" data-name="Layer 1" xmlns="http://www.w3.org/2000/svg" viewBox="0 0 641.04 175.86"><defs><style>.cls-1{fill:#228343;}.cls-2{fill:#4b4648;}</style></defs><title>cebrap</title><path class="cls-1" d="M236.29,93.76v.91a44.52,44.52,0,1,1-45-44.31v43.4Z" transform="translate(-60.29 -50.36)"/><path class="cls-1" d="M236.29,181.76v.14a44.52,44.52,0,1,0-45,44.31V181.76Z" transform="translate(-60.29 -50.36)"/><path class="cls-1" d="M60.29,181.76v.15a44.23,44.23,0,1,1,88.45,0c0,24.46-20.45,44.3-44.45,44.3V181.76Z" transform="translate(-60.29 -50.36)"/><path class="cls-1" d="M60.29,93.76v.92a44.22,44.22,0,1,0,88.43,0c0-24.47-20.43-44.3-44.43-44.3V93.76Z" transform="translate(-60.29 -50.36)"/><path class="cls-2" d="M299.47,135.55c-5,8.63-12,12.83-22.5,12.83-17,0-26-11.85-26-27.75,0-16.13,9.38-27.53,25.88-27.53,9.38,0,16.95,3.15,22.35,11.63L288.82,110A12.83,12.83,0,0,0,277,102.63c-9.68,0-14.33,8-14.33,18s5.1,18.23,14.63,18.23c5.62,0,9.67-2.4,12.22-8.41Z" transform="translate(-60.29 -50.36)"/><path class="cls-2" d="M306.28,94.23h35.26v8.32h-24.3v12.68h17.55v8.25H317.24v15.38h25.13v8.32H306.28Z" transform="translate(-60.29 -50.36)"/><path class="cls-2" d="M349.64,94.23h22c8.85,0,17.62,3.82,17.62,14A12.28,12.28,0,0,1,379,120.1c7.21,1.28,12,5.18,12,12.75,0,11.33-8.48,14.33-18.31,14.33h-23ZM368.24,116c5.78,0,9.23-1.5,9.23-7,0-4.57-3-6.45-8.18-6.45h-8.7V116Zm2.55,22.88c5.4,0,8.48-2.55,8.48-7.43,0-5-3.9-7.13-9.31-7.13h-9.37v14.56Z" transform="translate(-60.29 -50.36)"/><path class="cls-2" d="M398.16,94.23h20c11.1,0,20.55,4.27,20.55,16,0,8.7-6.52,12.67-13.28,13.72,2.78.53,4.88,2,6.68,5.1l10.35,18.08H429.67l-7.2-13.8c-2.33-4.5-4.5-5.7-8.85-5.7h-4.5v19.5h-11ZM417.89,119c4.88,0,9.08-1.88,9.08-8.48,0-5.93-4.5-8-9.08-8h-8.77V119Z" transform="translate(-60.29 -50.36)"/><path class="cls-2" d="M463.64,94.23h9.82l20,53H481.94l-4.13-12.08h-18.9l-4.05,12.08H443.61Zm11.25,32.55c-2.18-6.6-4.35-12.45-6.53-20-1.95,7.2-4.35,13.43-6.52,20Z" transform="translate(-60.29 -50.36)"/><path class="cls-2" d="M499,94.23h20.7c10.43,0,19.88,4.57,19.88,16.35,0,13-8.7,17.55-19.81,17.55H510v19.05H499Zm19.05,25.2c5.85,0,9.83-2,9.83-8.85,0-5.93-4.5-8-9.91-8h-8v16.88Z" transform="translate(-60.29 -50.36)"/><path class="cls-2" d="M265.19,176.55a5.37,5.37,0,0,1-5.11,3.09c-4,0-5.79-2.92-5.79-6.54s1.92-6.57,5.79-6.57a5.27,5.27,0,0,1,5,3.12l-1.76.83a3.31,3.31,0,0,0-3.22-2.31c-2.54,0-3.65,2.14-3.65,4.81s1,5,3.75,5a3.43,3.43,0,0,0,3.35-2.39Z" transform="translate(-60.29 -50.36)"/><path class="cls-2" d="M268.88,173.55c.18,2.82,1.51,4.48,3.8,4.48A3.48,3.48,0,0,0,276,176l1.58.88a5.44,5.44,0,0,1-5,2.79c-3.9,0-5.84-2.89-5.84-6.49s1.92-6.62,5.64-6.62,5.39,2.92,5.39,6.34c0,.38,0,.56,0,.68Zm0-1.26h6.72c0-2.06-.93-4.17-3.28-4.17C270.27,168.12,269.09,169.75,268.91,172.29Z" transform="translate(-60.29 -50.36)"/><path class="cls-2" d="M280.3,166.88h1.81l.23,2.47a4.42,4.42,0,0,1,4.1-2.82c2.57,0,3.77,1.76,3.77,4.68v8h-2.08v-7.62c0-2.24-1-3.27-2.52-3.27-1.84,0-3.22,1.58-3.22,4.33v6.56H280.3Z" transform="translate(-60.29 -50.36)"/><path class="cls-2" d="M294.46,168.32h-2.11v-1.44h.45c2.06,0,2.16-.8,2.39-2.92l.05-.45h1.31v3.37h2.66v1.44h-2.66V176c0,1.41.35,2,1.48,2a2.61,2.61,0,0,0,1.26-.3l.23,1.51a5.19,5.19,0,0,1-2.12.43c-2.39,0-2.94-1.38-2.94-3.27Z" transform="translate(-60.29 -50.36)"/><path class="cls-2" d="M301.72,166.88h1.82l.2,2.77a4.71,4.71,0,0,1,4.43-3.12v2.22a3.74,3.74,0,0,0-.78-.08c-1.66,0-3.58,1.18-3.58,4.18v6.41h-2.09Z" transform="translate(-60.29 -50.36)"/><path class="cls-2" d="M309.27,173.05c0-3.67,2-6.52,5.69-6.52s5.71,2.82,5.71,6.52-2,6.59-5.71,6.59S309.27,176.72,309.27,173.05Zm9.21,0c0-2.79-1.23-4.88-3.52-4.88s-3.5,2.09-3.5,4.88S312.64,178,315,178,318.48,175.84,318.48,173.05Z" transform="translate(-60.29 -50.36)"/><path class="cls-2" d="M329,161.5h2.08v7.57a4.28,4.28,0,0,1,4-2.54c2.9,0,4.81,2.52,4.81,6.42s-1.84,6.64-4.93,6.64a4.21,4.21,0,0,1-4-2.67l-.26,2.34H329Zm2.08,11.62a10.56,10.56,0,0,0,.13,1.74,3.39,3.39,0,0,0,3.2,3c2.29,0,3.27-2.44,3.27-4.83s-1-4.8-3.32-4.8a3.26,3.26,0,0,0-3.17,3,10.81,10.81,0,0,0-.11,1.74Z" transform="translate(-60.29 -50.36)"/><path class="cls-2" d="M342.52,166.88h1.81l.2,2.77a4.71,4.71,0,0,1,4.43-3.12v2.22a3.74,3.74,0,0,0-.78-.08c-1.66,0-3.57,1.18-3.57,4.18v6.41h-2.09Z" transform="translate(-60.29 -50.36)"/><path class="cls-2" d="M358.47,179.26a8.17,8.17,0,0,1-.33-2.16,4.18,4.18,0,0,1-4,2.54,3.62,3.62,0,0,1-3.93-3.8c0-2.62,2-3.45,4.68-3.85l3.17-.48v-.78c0-2.19-1.18-2.56-2.52-2.56A4.6,4.6,0,0,0,351.6,170l-1.08-1.36a6.54,6.54,0,0,1,5.23-2.14c3.07,0,4.4,1.34,4.4,4.35v5a9.69,9.69,0,0,0,.38,3.37ZM358,172.9l-3,.48c-2,.35-2.82,1.05-2.82,2.36a2.2,2.2,0,0,0,2.34,2.37,3.52,3.52,0,0,0,3.45-3.75Z" transform="translate(-60.29 -50.36)"/><path class="cls-2" d="M363.62,176.22a4.86,4.86,0,0,0,3.8,1.86c1.41,0,2.62-.68,2.62-2,0-3.15-7-1.54-7-6,0-2.46,2.16-3.52,4.48-3.52a6.39,6.39,0,0,1,4.35,1.51l-1.05,1.41a4.87,4.87,0,0,0-3.37-1.36c-1.16,0-2.27.5-2.27,1.76,0,2.87,6.92,1.46,6.92,6,0,2.56-2.21,3.82-4.65,3.82a6.39,6.39,0,0,1-5-2Z" transform="translate(-60.29 -50.36)"/><path class="cls-2" d="M374.59,162.08h2.08v2.09h-2.08Zm0,4.8h2.08v12.38h-2.08Z" transform="translate(-60.29 -50.36)"/><path class="cls-2" d="M379.89,161.5H382v17.76h-2.09Z" transform="translate(-60.29 -50.36)"/><path class="cls-2" d="M386.78,173.55c.18,2.82,1.51,4.48,3.8,4.48a3.48,3.48,0,0,0,3.3-2.06l1.58.88a5.44,5.44,0,0,1-5,2.79c-3.9,0-5.84-2.89-5.84-6.49s1.92-6.62,5.64-6.62,5.38,2.92,5.38,6.34c0,.38,0,.56,0,.68Zm0-1.26h6.72c0-2.06-.94-4.17-3.27-4.17C388.17,168.12,387,169.75,386.81,172.29Z" transform="translate(-60.29 -50.36)"/><path class="cls-2" d="M398.2,162.08h2.09v2.09H398.2Zm0,4.8h2.09v12.38H398.2Z" transform="translate(-60.29 -50.36)"/><path class="cls-2" d="M403.51,166.88h1.81l.2,2.77a4.71,4.71,0,0,1,4.43-3.12v2.22a3.81,3.81,0,0,0-.78-.08c-1.66,0-3.58,1.18-3.58,4.18v6.41h-2.08Z" transform="translate(-60.29 -50.36)"/><path class="cls-2" d="M411.05,173.05c0-3.67,2-6.52,5.69-6.52s5.71,2.82,5.71,6.52-2,6.59-5.71,6.59S411.05,176.72,411.05,173.05Zm9.21,0c0-2.79-1.23-4.88-3.52-4.88s-3.5,2.09-3.5,4.88,1.18,4.95,3.55,4.95S420.26,175.84,420.26,173.05Z" transform="translate(-60.29 -50.36)"/><path class="cls-2" d="M439.1,176.85a4,4,0,0,1-3.93,2.71c-3.1,0-5-2.64-5-6.54s2-6.46,5-6.46A3.93,3.93,0,0,1,439,169v-7.5h2.11v17.76h-2ZM439,173a9.62,9.62,0,0,0-.13-1.94,3.21,3.21,0,0,0-3.14-2.79c-2.27,0-3.33,2.11-3.33,4.75,0,2.82,1.23,4.86,3.37,4.86a3.24,3.24,0,0,0,3.07-2.87,8.92,8.92,0,0,0,.16-1.89Z" transform="translate(-60.29 -50.36)"/><path class="cls-2" d="M445.88,173.55c.18,2.82,1.51,4.48,3.8,4.48A3.48,3.48,0,0,0,453,176l1.58.88a5.44,5.44,0,0,1-5,2.79c-3.9,0-5.83-2.89-5.83-6.49s1.91-6.62,5.63-6.62,5.39,2.92,5.39,6.34c0,.38,0,.56,0,.68Zm0-1.26h6.72c0-2.06-.93-4.17-3.27-4.17C447.27,168.12,446.08,169.75,445.91,172.29Z" transform="translate(-60.29 -50.36)"/><path class="cls-2" d="M470.73,179.26a8.17,8.17,0,0,1-.33-2.16,4.18,4.18,0,0,1-4,2.54,3.62,3.62,0,0,1-3.93-3.8c0-2.62,2-3.45,4.68-3.85l3.17-.48v-.78c0-2.19-1.18-2.56-2.51-2.56a4.62,4.62,0,0,0-3.93,1.86l-1.08-1.36a6.54,6.54,0,0,1,5.23-2.14c3.07,0,4.41,1.34,4.41,4.35v5a9.69,9.69,0,0,0,.38,3.37Zm-.43-6.36-3,.48c-2,.35-2.81,1.05-2.81,2.36a2.2,2.2,0,0,0,2.34,2.37,3.51,3.51,0,0,0,3.44-3.75Z" transform="translate(-60.29 -50.36)"/><path class="cls-2" d="M475.76,166.88h1.81l.23,2.47a4.42,4.42,0,0,1,4.1-2.82c2.56,0,3.77,1.76,3.77,4.68v8h-2.09v-7.62c0-2.24-1-3.27-2.51-3.27-1.84,0-3.22,1.58-3.22,4.33v6.56h-2.09Z" transform="translate(-60.29 -50.36)"/><path class="cls-2" d="M496.61,179.26a8.17,8.17,0,0,1-.33-2.16,4.18,4.18,0,0,1-4,2.54,3.62,3.62,0,0,1-3.93-3.8c0-2.62,2-3.45,4.68-3.85l3.17-.48v-.78c0-2.19-1.18-2.56-2.51-2.56a4.61,4.61,0,0,0-3.93,1.86l-1.08-1.36a6.54,6.54,0,0,1,5.23-2.14c3.07,0,4.41,1.34,4.41,4.35v5a10,10,0,0,0,.37,3.37Zm-.43-6.36-3,.48c-2,.35-2.81,1.05-2.81,2.36a2.2,2.2,0,0,0,2.34,2.37,3.51,3.51,0,0,0,3.44-3.75Zm-2.13-8.08h-1.61l1.86-3.19h2.49Z" transform="translate(-60.29 -50.36)"/><path class="cls-2" d="M501.64,161.5h2.08v17.76h-2.08Z" transform="translate(-60.29 -50.36)"/><path class="cls-2" d="M506.94,162.08H509v2.09h-2.09Zm0,4.8H509v12.38h-2.09Z" transform="translate(-60.29 -50.36)"/><path class="cls-2" d="M512.48,176.22a4.84,4.84,0,0,0,3.8,1.86c1.41,0,2.61-.68,2.61-2,0-3.15-6.94-1.54-6.94-6,0-2.46,2.16-3.52,4.48-3.52a6.41,6.41,0,0,1,4.35,1.51l-1,1.41a4.87,4.87,0,0,0-3.38-1.36c-1.16,0-2.26.5-2.26,1.76,0,2.87,6.92,1.46,6.92,6,0,2.56-2.22,3.82-4.66,3.82a6.37,6.37,0,0,1-5-2Z" transform="translate(-60.29 -50.36)"/><path class="cls-2" d="M524.77,173.55c.18,2.82,1.52,4.48,3.8,4.48a3.47,3.47,0,0,0,3.3-2.06l1.59.88a5.45,5.45,0,0,1-5,2.79c-3.9,0-5.83-2.89-5.83-6.49s1.91-6.62,5.63-6.62,5.39,2.92,5.39,6.34c0,.38,0,.56,0,.68Zm0-1.26h6.72c0-2.06-.93-4.17-3.27-4.17C526.16,168.12,525,169.75,524.8,172.29Z" transform="translate(-60.29 -50.36)"/><path class="cls-2" d="M543.43,173.55c.18,2.82,1.51,4.48,3.8,4.48a3.47,3.47,0,0,0,3.3-2.06l1.59.88a5.46,5.46,0,0,1-5,2.79c-3.9,0-5.83-2.89-5.83-6.49s1.91-6.62,5.63-6.62,5.39,2.92,5.39,6.34c0,.38,0,.56,0,.68Zm0-1.26h6.72c0-2.06-.93-4.17-3.27-4.17C544.82,168.12,543.64,169.75,543.46,172.29Z" transform="translate(-60.29 -50.36)"/><path class="cls-2" d="M560.51,166.88h2.08v2.39a4.21,4.21,0,0,1,4.06-2.74c3.22,0,4.73,2.87,4.73,6.47,0,4.28-2.17,6.59-5,6.59a4,4,0,0,1-3.81-2.36v6.39h-2.08Zm2.08,6.27a10.44,10.44,0,0,0,.13,1.71,3.39,3.39,0,0,0,3.2,3c2.29,0,3.27-2.33,3.27-4.83s-.91-4.8-3.27-4.8a3.33,3.33,0,0,0-3.22,3.07,12.08,12.08,0,0,0-.11,1.71Z" transform="translate(-60.29 -50.36)"/><path class="cls-2" d="M574,161.5h2.09v17.76H574Z" transform="translate(-60.29 -50.36)"/><path class="cls-2" d="M587.12,179.26a8.17,8.17,0,0,1-.33-2.16,4.19,4.19,0,0,1-4,2.54,3.61,3.61,0,0,1-3.92-3.8c0-2.62,2-3.45,4.68-3.85l3.17-.48v-.78c0-2.19-1.18-2.56-2.51-2.56a4.61,4.61,0,0,0-3.93,1.86l-1.08-1.36a6.54,6.54,0,0,1,5.23-2.14c3.07,0,4.41,1.34,4.41,4.35v5a10,10,0,0,0,.37,3.37Zm-.43-6.36-3,.48c-2,.35-2.82,1.05-2.82,2.36a2.2,2.2,0,0,0,2.35,2.37,3.51,3.51,0,0,0,3.44-3.75Z" transform="translate(-60.29 -50.36)"/><path class="cls-2" d="M592.15,166.88H594l.23,2.47a4.41,4.41,0,0,1,4.1-2.82c2.56,0,3.77,1.76,3.77,4.68v8H600v-7.62c0-2.24-1-3.27-2.51-3.27-1.84,0-3.23,1.58-3.23,4.33v6.56h-2.08Z" transform="translate(-60.29 -50.36)"/><path class="cls-2" d="M606.81,173.55c.18,2.82,1.51,4.48,3.8,4.48a3.49,3.49,0,0,0,3.3-2.06l1.58.88a5.45,5.45,0,0,1-5,2.79c-3.9,0-5.84-2.89-5.84-6.49s1.91-6.62,5.64-6.62,5.38,2.92,5.38,6.34c0,.38,0,.56,0,.68Zm0-1.26h6.72c0-2.06-.93-4.17-3.27-4.17C608.19,168.12,607,169.75,606.83,172.29Z" transform="translate(-60.29 -50.36)"/><path class="cls-2" d="M616,182a4.17,4.17,0,0,0,1.13.18c1,0,1.18-.61,1.18-1.64V166.88h2.11v13.79c0,1.94-.65,3.1-2.89,3.1a4.26,4.26,0,0,1-1.73-.3Zm2.31-19.88h2.11v2.09h-2.11Z" transform="translate(-60.29 -50.36)"/><path class="cls-2" d="M631.46,179.26a8.17,8.17,0,0,1-.33-2.16,4.18,4.18,0,0,1-4,2.54,3.62,3.62,0,0,1-3.93-3.8c0-2.62,2-3.45,4.68-3.85l3.17-.48v-.78c0-2.19-1.18-2.56-2.51-2.56a4.61,4.61,0,0,0-3.93,1.86l-1.08-1.36a6.54,6.54,0,0,1,5.23-2.14c3.07,0,4.41,1.34,4.41,4.35v5a10,10,0,0,0,.37,3.37ZM631,172.9l-3,.48c-2,.35-2.81,1.05-2.81,2.36a2.19,2.19,0,0,0,2.33,2.37,3.52,3.52,0,0,0,3.45-3.75Z" transform="translate(-60.29 -50.36)"/><path class="cls-2" d="M636.49,166.88h1.81l.22,2.42a3.87,3.87,0,0,1,3.75-2.77,3.24,3.24,0,0,1,3.35,2.85,4,4,0,0,1,3.93-2.85c2.81,0,3.62,2.12,3.62,4.61v8.12h-2.09v-7.6c0-2.18-.83-3.29-2.31-3.29-1.64,0-2.9,1.53-2.9,4.23v6.66h-2.09v-7.49c0-2.29-.85-3.4-2.28-3.4-1.62,0-2.93,1.56-2.93,4.35v6.54h-2.08Z" transform="translate(-60.29 -50.36)"/><path class="cls-2" d="M657.91,173.55c.18,2.82,1.52,4.48,3.8,4.48A3.48,3.48,0,0,0,665,176l1.59.88a5.46,5.46,0,0,1-5,2.79c-3.9,0-5.83-2.89-5.83-6.49s1.91-6.62,5.63-6.62,5.39,2.92,5.39,6.34c0,.38,0,.56,0,.68Zm0-1.26h6.72c0-2.06-.93-4.17-3.27-4.17C659.3,168.12,658.12,169.75,657.94,172.29Z" transform="translate(-60.29 -50.36)"/><path class="cls-2" d="M669.33,166.88h1.81l.23,2.47a4.42,4.42,0,0,1,4.1-2.82c2.57,0,3.78,1.76,3.78,4.68v8h-2.09v-7.62c0-2.24-1-3.27-2.52-3.27-1.84,0-3.22,1.58-3.22,4.33v6.56h-2.09Z" transform="translate(-60.29 -50.36)"/><path class="cls-2" d="M683.49,168.32h-2.12v-1.44h.46c2.06,0,2.16-.8,2.39-2.92l0-.45h1.31v3.37h2.67v1.44h-2.67V176c0,1.41.35,2,1.48,2a2.61,2.61,0,0,0,1.26-.3l.23,1.51a5.19,5.19,0,0,1-2.12.43c-2.39,0-2.94-1.38-2.94-3.27Z" transform="translate(-60.29 -50.36)"/><path class="cls-2" d="M689.93,173.05c0-3.67,2-6.52,5.69-6.52s5.71,2.82,5.71,6.52-2,6.59-5.71,6.59S689.93,176.72,689.93,173.05Zm9.21,0c0-2.79-1.23-4.88-3.52-4.88s-3.5,2.09-3.5,4.88,1.18,4.95,3.55,4.95S699.14,175.84,699.14,173.05Z" transform="translate(-60.29 -50.36)"/></svg>