<?xml version="1.0" encoding="utf-8"?>
<!-- Generator: Adobe Illustrator 23.0.1, SVG Export Plug-In . SVG Version: 6.00 Build 0)  -->
<svg version="1.1" id="Camada_1" xmlns="http://www.w3.org/2000/svg" xmlns:xlink="http://www.w3.org/1999/xlink" x="0px" y="0px"
	 viewBox="0 0 678 150.69" style="enable-background:new 0 0 678 150.69;" xml:space="preserve">
<style type="text/css">
	.st0{fill:#253A58;}
</style>
<g>
	<path class="st0" d="M339.66,41.13c2.11,0,3.83-1.72,3.83-3.83V24.45h7.97c2.11,0,3.83-1.72,3.83-3.84c0-2.11-1.72-3.83-3.83-3.83
		h-7.97V7.77h13.99c2.11,0,3.83-1.72,3.83-3.83c0-2.11-1.72-3.83-3.83-3.83h-17.82c-2.12,0-3.83,1.71-3.83,3.83V37.3
		C335.83,39.41,337.54,41.13,339.66,41.13z"/>
	<path class="st0" d="M411.44,41.13h17.83c2.12,0,3.83-1.72,3.83-3.83c0-2.12-1.71-3.83-3.83-3.83h-14v-9.02h7.97
		c2.11,0,3.83-1.72,3.83-3.84c0-2.11-1.72-3.83-3.83-3.83h-7.97V7.77h14c2.12,0,3.83-1.72,3.83-3.83c0-2.11-1.71-3.83-3.83-3.83
		h-17.83c-2.11,0-3.82,1.71-3.82,3.83V37.3C407.62,39.41,409.33,41.13,411.44,41.13z"/>
	<path class="st0" d="M523.4,41.13h17.83c2.11,0,3.83-1.72,3.83-3.83c0-2.12-1.72-3.83-3.83-3.83h-14v-9.02h7.97
		c2.11,0,3.83-1.72,3.83-3.84c0-2.11-1.72-3.83-3.83-3.83h-7.97V7.77h14c2.11,0,3.83-1.72,3.83-3.83c0-2.11-1.72-3.83-3.83-3.83
		H523.4c-2.11,0-3.83,1.71-3.83,3.83V37.3C519.57,39.41,521.29,41.13,523.4,41.13z"/>
	<path class="st0" d="M372.49,41.02c2.11,0,3.82-1.72,3.82-3.83v-8.1h7.77l5.88,10.13c1.06,1.83,3.41,2.46,5.24,1.39
		c1.83-1.06,2.45-3.41,1.39-5.24l-4.39-7.55c5.07-2.27,8.62-7.36,8.62-13.28C400.82,6.51,394.3,0,386.27,0h-13.79
		c-2.11,0-3.83,1.72-3.83,3.83v33.36C368.66,39.3,370.37,41.02,372.49,41.02z M376.31,7.66h9.96c3.8,0,6.88,3.08,6.88,6.89
		c0,3.78-3.05,6.85-6.82,6.88h-0.06v-0.01h-9.96V7.66z"/>
	<path class="st0" d="M484.57,7.77h8.4V37.3c0,2.11,1.72,3.83,3.83,3.83c2.12,0,3.83-1.72,3.83-3.83V7.77h8.4
		c2.12,0,3.83-1.72,3.83-3.83c0-2.11-1.71-3.83-3.83-3.83h-24.46c-2.12,0-3.83,1.72-3.83,3.83C480.73,6.05,482.45,7.77,484.57,7.77z
		"/>
	<path class="st0" d="M593.67,95.79L593.67,95.79h18.71c2.11,0,3.83-1.72,3.83-3.83c0-2.12-1.72-3.83-3.83-3.83H597.5V58.59
		c0-2.12-1.72-3.83-3.83-3.83s-3.83,1.71-3.83,3.83v33.36C589.84,94.07,591.55,95.79,593.67,95.79z"/>
	<path class="st0" d="M501.55,69.31c0-8.03-6.51-14.54-14.54-14.54h-3.83c-8.03,0-14.54,6.51-14.54,14.54v11.93
		c0,8.03,6.51,14.55,14.54,14.55h3.83c8.04,0,14.54-6.52,14.54-14.54V69.31z M493.89,81.24c0,3.8-3.08,6.88-6.88,6.88h-3.83
		c-3.8,0-6.88-3.08-6.88-6.88V69.31c0-3.8,3.08-6.88,6.88-6.88h3.83c3.8,0,6.88,3.08,6.88,6.88V81.24z"/>
	<path class="st0" d="M452.79,58.59v33.36c0,2.12,1.72,3.83,3.82,3.83c2.12,0,3.83-1.72,3.83-3.83V58.59c0-2.12-1.71-3.83-3.83-3.83
		C454.5,54.77,452.79,56.48,452.79,58.59z"/>
	<path class="st0" d="M443.94,88.1l-0.01-0.01c0.28-0.53,0.44-1.12,0.44-1.76c0-2.12-1.71-3.83-3.82-3.83
		c-1.42,0-2.65,0.78-3.31,1.93l-0.01-0.01c-1.15,2.2-3.46,3.7-6.11,3.7h-3.82c-3.8,0-6.89-3.08-6.89-6.88V69.31
		c0-3.8,3.08-6.88,6.89-6.88h3.82c2.65,0,4.96,1.5,6.11,3.7l0.01-0.01c0.66,1.16,1.89,1.94,3.31,1.94c2.11,0,3.82-1.72,3.82-3.83
		c0-0.64-0.17-1.24-0.44-1.77l0.01,0c-2.45-4.58-7.28-7.68-12.83-7.68h-3.82c-8.04,0-14.55,6.51-14.55,14.54v11.94
		c0,8.03,6.51,14.54,14.55,14.54h3.82C436.67,95.79,441.5,92.67,443.94,88.1z"/>
	<path class="st0" d="M520.03,109.58h-17.82c-2.12,0-3.83,1.71-3.83,3.83v33.36c0,2.11,1.72,3.83,3.83,3.83
		c2.11,0,3.83-1.71,3.83-3.83v-12.85h7.97c2.12,0,3.83-1.72,3.83-3.83c0-2.12-1.72-3.83-3.83-3.83h-7.97v-9.02h13.99
		c2.12,0,3.83-1.72,3.83-3.83C523.87,111.29,522.15,109.58,520.03,109.58z"/>
	<path class="st0" d="M409.84,109.58h-13.79c-2.11,0-3.83,1.71-3.83,3.83v33.36c0,2.11,1.72,3.83,3.83,3.83
		c2.12,0,3.84-1.71,3.84-3.83v-8.1h9.95c8.04,0,14.54-6.51,14.54-14.54C424.39,116.09,417.88,109.58,409.84,109.58z M409.84,131
		h-9.95v-13.76h9.95c3.8,0,6.89,3.08,6.89,6.88C416.73,127.92,413.65,131,409.84,131z"/>
	<path class="st0" d="M488.57,117.24c2.12,0,3.83-1.72,3.83-3.83c0-2.12-1.72-3.83-3.83-3.83h-17.83c-2.11,0-3.83,1.71-3.83,3.83
		v33.36c0,2.11,1.72,3.83,3.83,3.83h17.83c2.12,0,3.83-1.71,3.83-3.83c0-2.12-1.72-3.83-3.83-3.83h-14v-9.02h7.98
		c2.11,0,3.83-1.72,3.83-3.83c0-2.12-1.72-3.83-3.83-3.83h-7.98v-9.02H488.57z"/>
	<path class="st0" d="M550.84,117.24c2.11,0,3.83-1.72,3.83-3.83c0-2.12-1.72-3.83-3.83-3.83h-17.83c-2.11,0-3.83,1.71-3.83,3.83
		v33.36c0,2.11,1.72,3.83,3.83,3.83h17.83c2.11,0,3.83-1.71,3.83-3.83c0-2.12-1.72-3.83-3.83-3.83h-13.99v-9.02h7.97
		c2.12,0,3.83-1.72,3.83-3.83c0-2.12-1.72-3.83-3.83-3.83h-7.97v-9.02H550.84z"/>
	<path class="st0" d="M461.35,124.02c0-8.04-6.51-14.55-14.54-14.55h-13.79c-2.11,0-3.83,1.72-3.83,3.83v33.36
		c0,2.12,1.72,3.83,3.83,3.83c2.12,0,3.83-1.72,3.83-3.83v-8.1h7.77l5.88,10.13c1.06,1.83,3.41,2.45,5.23,1.39
		c1.83-1.06,2.45-3.4,1.39-5.23l-4.39-7.56C457.81,135.01,461.35,129.93,461.35,124.02z M446.86,130.89c-0.02,0-0.04,0-0.06,0v-0.02
		h-9.96v-13.74h9.96c3.8,0,6.89,3.08,6.89,6.88C453.69,127.8,450.64,130.86,446.86,130.89z"/>
	<path class="st0" d="M630.73,109.58h-3.82c-8.04,0-14.54,6.51-14.54,14.54v11.93c0,8.03,6.51,14.54,14.54,14.54h3.82
		c8.04,0,14.54-6.51,14.54-14.54v-11.93C645.28,116.09,638.77,109.58,630.73,109.58z M637.62,136.05c0,3.81-3.08,6.88-6.89,6.88
		l-3.82,0c-3.81,0-6.89-3.08-6.89-6.88v-11.93c0-3.8,3.08-6.88,6.89-6.88h3.82c3.8,0,6.89,3.08,6.89,6.88V136.05z"/>
	<path class="st0" d="M565.34,109.58c-2.12,0-3.83,1.71-3.83,3.83v33.36c0,2.11,1.71,3.83,3.83,3.83c2.12,0,3.83-1.71,3.83-3.83
		v-33.36C569.18,111.29,567.46,109.58,565.34,109.58z"/>
	<path class="st0" d="M604.95,109.58h-24.46c-2.11,0-3.83,1.71-3.83,3.83c0,2.11,1.72,3.83,3.83,3.83h8.4v29.53
		c0,2.11,1.72,3.83,3.83,3.83c2.12,0,3.83-1.71,3.83-3.83v-29.53h8.4c2.11,0,3.83-1.72,3.83-3.83
		C608.78,111.29,607.07,109.58,604.95,109.58z"/>
	<path class="st0" d="M347.69,109.58h-7.67c-1.52,0-2.75,1.23-2.75,2.74v23.9c0,1.51,1.23,2.74,2.75,2.74h7.67
		c5.76,0,10.42-4.66,10.42-10.42V120C358.11,114.24,353.45,109.58,347.69,109.58z M352.62,128.54c0,2.72-2.21,4.93-4.93,4.93h-4.93
		v-18.41h4.93c2.72,0,4.93,2.21,4.93,4.93V128.54z"/>
	<path class="st0" d="M377.4,115.06c1.51,0,2.74-1.22,2.74-2.74c0-1.51-1.23-2.74-2.74-2.74h-12.77c-1.51,0-2.74,1.23-2.74,2.74
		v23.9c0,1.51,1.23,2.74,2.74,2.74h12.77c1.51,0,2.74-1.23,2.74-2.74c0-1.51-1.23-2.74-2.74-2.74h-10.03v-6.46h5.71
		c1.51,0,2.74-1.23,2.74-2.75c0-1.51-1.22-2.75-2.74-2.75h-5.71v-6.46H377.4z"/>
	<path class="st0" d="M247.74,0.09h-50.43c-7.76,0-14.06,6.29-14.06,14.06v79.59L119.84,7.24c-2.35-4.17-6.78-7.02-11.88-7.15
		c-0.03,0-93.9-0.01-93.9-0.01C6.29,0.09,0,6.38,0,14.15v122.3c0,7.76,6.29,14.06,14.06,14.06c7.77,0,14.06-6.29,14.06-14.06V89.36
		H57.3c7.76,0,14.06-6.29,14.06-14.06c0-7.76-6.29-14.06-14.06-14.06H28.12V28.2h65.34v108.24c0,7.76,6.29,14.06,14.06,14.06
		c7.76,0,14.06-6.29,14.06-14.06V57.17l63.32,86.36c0.93,1.47,2.08,2.69,3.38,3.68c2.45,2.05,5.6,3.29,9.04,3.29
		c7.77,0,14.06-6.29,14.06-14.06V28.2h36.37c13.9,0,25.21,11.31,25.21,25.21c0,13.9-11.31,25.21-25.21,25.21
		c-2.37,0-3.5-0.04-6.45-0.03c-7.77,0-14.06,6.29-14.06,14.06c0,7.77,6.29,14.06,14.06,14.06c0.07,0,0.13-0.01,0.21-0.01
		c0.03,0,0.07,0.01,0.1,0.01c3.23,0,4.12,0.03,6.14,0.03c29.4,0,53.32-23.92,53.32-53.33C301.06,24.01,277.14,0.09,247.74,0.09z"/>
	<path class="st0" d="M509.64,58.6L509.64,58.6v33.35c0,2.12,1.71,3.83,3.83,3.83c2.12,0,3.83-1.71,3.83-3.83V70.22l17.41,23.81
		c0.68,1.05,1.87,1.75,3.21,1.75c2.12,0,3.83-1.71,3.83-3.83V58.6c0-2.12-1.71-3.83-3.83-3.83c-2.12,0-3.83,1.71-3.83,3.83v21.73
		l-18.06-24.57c-0.68-0.61-1.58-0.99-2.57-0.99C511.35,54.77,509.64,56.48,509.64,58.6z"/>
	<path class="st0" d="M367.95,91.95V58.6c0-2.12-1.71-3.83-3.83-3.83c-2.11,0-3.83,1.71-3.83,3.83v21.73l-18.06-24.57
		c-0.68-0.61-1.58-0.99-2.57-0.99c-2.12,0-3.83,1.71-3.83,3.83v0v33.35c0,2.12,1.71,3.83,3.83,3.83s3.83-1.71,3.83-3.83V70.22
		l17.41,23.81c0.68,1.05,1.87,1.75,3.21,1.75C366.24,95.78,367.95,94.07,367.95,91.95z"/>
	<path class="st0" d="M445.73,41.07c2.12,0,3.83-1.71,3.83-3.83V15.51l17.41,23.81c0.68,1.05,1.87,1.75,3.21,1.75
		c2.12,0,3.83-1.71,3.83-3.83c0,0,0,0.01,0,0V3.89c0-2.12-1.71-3.83-3.83-3.83s-3.83,1.71-3.83,3.83v21.73L448.3,1.05
		c-0.68-0.61-1.58-0.99-2.57-0.99c-2.12,0-3.83,1.71-3.83,3.83v0v33.35C441.9,39.36,443.62,41.07,445.73,41.07z"/>
	<g>
		<path class="st0" d="M662.14,133.8l3.6,0.05c2.67,0.2,4.76,2.24,4.76,4.66c0,2.49-2.41,4.68-5.16,4.68h-3.19
			c-1.94,0-3.7-1.07-4.6-2.8c-0.67-1.17-1.91-1.89-3.26-1.89c-2.07,0-3.75,1.68-3.75,3.76c0,0.6,0.15,1.2,0.43,1.74
			c2.21,4.13,6.5,6.7,11.19,6.7h3.19c6.86,0,12.65-5.4,12.65-11.78c0-6.59-4.98-11.98-11.61-12.54l-3.6-0.05
			c-2.67-0.2-4.76-2.24-4.76-4.66c0-2.49,2.41-4.68,5.16-4.68h3.19c1.94,0,3.71,1.06,4.62,2.8c0.67,1.17,1.92,1.89,3.25,1.89
			c2.07,0,3.75-1.68,3.75-3.75c0-0.6-0.15-1.18-0.44-1.73v0c-2.22-4.14-6.5-6.71-11.18-6.71h-3.19c-6.86,0-12.65,5.4-12.65,11.78
			C650.54,127.86,655.51,133.24,662.14,133.8z"/>
	</g>
	<path class="st0" d="M406.45,90.18l-12.11-33.02l-0.01,0c-0.57-1.4-1.94-2.4-3.55-2.4c-1.61,0-2.98,0.99-3.55,2.4l-0.01,0
		l-12.31,33.56c-0.13,0.39-0.2,0.81-0.2,1.24c0,2.11,1.71,3.83,3.83,3.83c1.76,0,3.25-1.19,3.69-2.82l0,0l3.32-9.04h10.44l3.37,9.16
		c0.52,1.5,1.94,2.57,3.62,2.57c2.11,0,3.83-1.71,3.83-3.83C406.82,91.24,406.69,90.68,406.45,90.18z M387.41,76.33l3.41-8.99
		l3.25,8.99H387.41z"/>
	<path class="st0" d="M581.08,90.18l-12.11-33.02l-0.01,0c-0.57-1.4-1.94-2.4-3.55-2.4s-2.98,0.99-3.55,2.4l-0.01,0l-12.31,33.56
		c-0.13,0.39-0.2,0.81-0.2,1.24c0,2.11,1.71,3.83,3.83,3.83c1.76,0,3.25-1.19,3.69-2.82l0,0l3.32-9.04h10.44l3.37,9.16
		c0.52,1.5,1.94,2.57,3.62,2.57c2.11,0,3.83-1.71,3.83-3.83C581.45,91.24,581.32,90.68,581.08,90.18z M562.03,76.33l3.41-8.99
		l3.25,8.99H562.03z"/>
</g>
</svg>
