<svg xmlns="http://www.w3.org/2000/svg" width="74.317" height="74.305" viewBox="0 0 74.317 74.305">
  <g id="Grupo_371" data-name="Grupo 371" transform="translate(-72 -25)">
    <rect id="Retângulo_1773" data-name="Retângulo 1773" width="68" height="51" transform="translate(76 28)" fill="#fff"/>
    <g id="Camada_2" data-name="Camada 2" transform="translate(72 25)">
      <g id="Camada_1" data-name="Camada 1">
        <path id="Caminho_753" data-name="Caminho 753" d="M.56,136.92v.031h0A.082.082,0,0,0,.56,136.92Z" transform="translate(-0.34 -83.039)" fill="#e97f05"/>
        <path id="Caminho_754" data-name="Caminho 754" d="M120.7,39.824a1.814,1.814,0,0,0-1.9-1.968h-2.09v3.9h2.082a1.814,1.814,0,0,0,1.909-1.928Z" transform="translate(-70.782 -22.957)" fill="#899b26"/>
        <path id="Caminho_755" data-name="Caminho 755" d="M73.408,37.33c-1.968,0-3.258,1.924-3.258,4.813s1.307,4.817,3.258,4.817,3.254-1.924,3.254-4.817S75.356,37.33,73.408,37.33Z" transform="translate(-42.544 -22.64)" fill="#899b26"/>
        <path id="Caminho_756" data-name="Caminho 756" d="M0,0V52.732c1.409,5.97,10.082,6.021,12.9,3.738A35.905,35.905,0,0,0,26.185,69.508,36.826,36.826,0,0,0,43.032,74.3H74.317V0ZM56.593,11.019h4.722V27.987H56.593Zm-35.2,36.625A9.587,9.587,0,0,1,16.6,48.856c-4.77,0-7.957-3.506-7.957-8.78,0-5.183,3.148-8.658,7.91-8.658a9.294,9.294,0,0,1,4.655,1.1v3.648a7.359,7.359,0,0,0-3.463-.85c-2.522,0-4.219,1.928-4.219,4.793s1.743,4.84,4.329,4.84A6.938,6.938,0,0,0,21.4,43.87Zm0-20.64A9.587,9.587,0,0,1,16.6,28.22c-4.77,0-7.941-3.51-7.941-8.783,0-5.183,3.148-8.658,7.91-8.658a9.293,9.293,0,0,1,4.655,1.1v3.644a7.359,7.359,0,0,0-3.463-.846c-2.522,0-4.219,1.924-4.219,4.789s1.743,4.84,4.329,4.84a6.938,6.938,0,0,0,3.542-1.078Zm9.472,21.852c-4.892,0-8.142-3.483-8.142-8.717s3.251-8.709,8.142-8.709S39,34.913,39,40.139,35.771,48.856,30.864,48.856Zm0-20.636c-4.888,0-8.142-3.487-8.142-8.717s3.251-8.713,8.142-8.713S39,14.277,39,19.5s-3.231,8.717-8.138,8.717Zm10.342-17.2H48.5c3.762,0,6.261,2.271,6.261,5.686,0,3.6-2.617,6.009-6.536,6.009H45.928v5.273H41.206ZM62.141,48.628l-.893-3.691H56.667l-.893,3.691H41.206V31.659h4.722V44.728h6.017L55.88,31.659h6.19l5.116,16.969Z" fill="#899b26"/>
        <path id="Caminho_757" data-name="Caminho 757" d="M73.408,89.77c-1.968,0-3.258,1.928-3.258,4.817S71.457,99.4,73.408,99.4s3.254-1.928,3.254-4.817S75.356,89.77,73.408,89.77Z" transform="translate(-42.544 -54.443)" fill="#899b26"/>
        <path id="Caminho_758" data-name="Caminho 758" d="M146.26,96.184h2.822l-1.4-5.824Z" transform="translate(-88.703 -54.801)" fill="#899b26"/>
        <path id="Caminho_759" data-name="Caminho 759" d="M12.9,137.686c-2.822,2.282-11.5,2.231-12.9-3.746,1.468,11.412,22.061,21.29,43.555,21.6a36.818,36.818,0,0,1-17.366-4.813A35.905,35.905,0,0,1,12.9,137.686" transform="translate(0 -81.231)" fill="#db3f14"/>
      </g>
    </g>
  </g>
</svg>
