<svg xmlns="http://www.w3.org/2000/svg" width="74.73" height="74.73" viewBox="0 0 74.73 74.73">
  <g id="Grupo_369" data-name="Grupo 369" transform="translate(-64 -23)">
    <g id="Grupo_370" data-name="Grupo 370">
      <rect id="Retângulo_1772" data-name="Retângulo 1772" width="66" height="51" transform="translate(69 30)" fill="#fff"/>
      <g id="Camada_2" data-name="Camada 2" transform="translate(64 23)">
        <g id="Camada_1" data-name="Camada 1">
          <path id="Caminho_15" data-name="Caminho 15" d="M.34,82.74Z" transform="translate(-0.117 -28.549)" fill="#e97f05"/>
          <path id="Caminho_16" data-name="Caminho 16" d="M74.538,24.864A1.827,1.827,0,0,0,72.626,22.9h-2.1v3.93h2.1a1.827,1.827,0,0,0,1.912-1.965Z" transform="translate(-24.336 -7.9)" fill="#e97f05"/>
          <path id="Caminho_17" data-name="Caminho 17" d="M45.665,22.56c-1.965,0-3.275,1.965-3.275,4.84s1.31,4.84,3.275,4.84,3.275-1.965,3.275-4.84S47.623,22.56,45.665,22.56Z" transform="translate(-14.627 -7.784)" fill="#e97f05"/>
          <path id="Caminho_18" data-name="Caminho 18" d="M0,0V53.051c1.421,6.006,10.145,6.052,12.981,3.759a36.022,36.022,0,0,0,13.361,13.1,37.044,37.044,0,0,0,16.944,4.82H74.73V0ZM56.915,11.082H61.67V28.163H56.915ZM21.548,47.916a9.687,9.687,0,0,1-4.853,1.205c-4.8,0-8-3.524-8-8.829s3.183-8.7,7.958-8.7a9.379,9.379,0,0,1,4.683,1.153v3.668a7.46,7.46,0,0,0-3.484-.851c-2.535,0-4.244,1.965-4.244,4.82s1.755,4.807,4.362,4.807a6.949,6.949,0,0,0,3.55-1.087Zm0-20.762a9.615,9.615,0,0,1-4.82,1.225c-4.8,0-8-3.53-8-8.835s3.183-8.691,7.958-8.691a9.379,9.379,0,0,1,4.683,1.107v3.668a7.381,7.381,0,0,0-3.484-.851c-2.535,0-4.244,1.965-4.244,4.814S15.391,24.456,18,24.456a6.936,6.936,0,0,0,3.55-1.081Zm9.49,21.967c-4.912,0-8.187-3.5-8.187-8.763s3.275-8.763,8.187-8.763,8.187,3.5,8.187,8.763S35.977,49.122,31.038,49.122Zm0-20.755c-4.912,0-8.187-3.5-8.187-8.763s3.275-8.763,8.187-8.763,8.187,3.517,8.187,8.809-3.249,8.731-8.187,8.731Zm10.4-17.284h7.335c3.786,0,6.294,2.286,6.294,5.718,0,3.622-2.62,6.045-6.55,6.045H46.194v5.318H41.439ZM62.5,48.905l-.9-3.714H56.981l-.9,3.714H41.439V31.837h4.755V44.989h6.032L56.2,31.837H62.43l5.141,17.068Z" fill="#e97f05"/>
          <path id="Caminho_19" data-name="Caminho 19" d="M45.665,54.25c-1.965,0-3.275,1.965-3.275,4.84s1.31,4.847,3.275,4.847,3.275-1.965,3.275-4.847S47.623,54.25,45.665,54.25Z" transform="translate(-14.627 -18.719)" fill="#e97f05"/>
          <path id="Caminho_20" data-name="Caminho 20" d="M88.38,60.455h2.836L89.808,54.6Z" transform="translate(-30.495 -18.84)" fill="#e97f05"/>
          <path id="Caminho_21" data-name="Caminho 21" d="M12.981,84.706C10.139,87,1.408,86.952,0,80.94c1.48,11.488,22.19,21.41,43.8,21.718a37.07,37.07,0,0,1-17.461-4.84,36.022,36.022,0,0,1-13.361-13.1" transform="translate(0 -27.928)" fill="#db3f14"/>
        </g>
      </g>
    </g>
  </g>
</svg>
