<svg xmlns="http://www.w3.org/2000/svg" xmlns:xlink="http://www.w3.org/1999/xlink" width="868" height="123" viewBox="0 0 868 123"><defs><style>.a,.c{fill:none;}.b{clip-path:url(#a);}.c{stroke:#acacac;stroke-width:3.6px;}</style><clipPath id="a"><rect class="a" width="124" height="123"/></clipPath></defs><g transform="translate(-74.15 -73.271)"><g transform="translate(74.15 73.271)"><g class="b" transform="translate(744)"><line class="c" y1="124.239" x2="125.249" transform="translate(122.069 122.854)"/><line class="c" y1="124.239" x2="125.249" transform="translate(111.035 112.387)"/><line class="c" y1="124.239" x2="125.249" transform="translate(99.794 101.903)"/><line class="c" y1="124.239" x2="125.249" transform="translate(89.156 91.419)"/><line class="c" y1="124.239" x2="125.249" transform="translate(78.948 80.952)"/><line class="c" y1="124.239" x2="125.249" transform="translate(69.257 70.467)"/><line class="c" y1="124.239" x2="125.249" transform="translate(-1.871 122.854)"/><line class="c" y1="124.239" x2="125.249" transform="translate(-12.906 112.387)"/><line class="c" y1="124.239" x2="125.249" transform="translate(-24.146 101.903)"/><line class="c" y1="124.239" x2="125.249" transform="translate(-34.784 91.419)"/><line class="c" y1="124.239" x2="125.249" transform="translate(-44.992 80.952)"/><line class="c" y1="124.239" x2="125.249" transform="translate(-54.684 70.467)"/><line class="c" y1="124.239" x2="125.249" transform="translate(-125.812 122.854)"/><line class="c" y1="124.239" x2="125.249" transform="translate(122.069 -0.087)"/><line class="c" y1="124.239" x2="125.249" transform="translate(111.035 -10.554)"/><line class="c" y1="124.239" x2="125.249" transform="translate(99.794 -21.038)"/><line class="c" y1="124.239" x2="125.249" transform="translate(89.156 -31.522)"/><line class="c" y1="124.239" x2="125.249" transform="translate(78.948 -41.989)"/><line class="c" y1="124.239" x2="125.249" transform="translate(69.257 -52.474)"/><line class="c" y1="124.239" x2="125.249" transform="translate(-1.871 -0.087)"/><line class="c" y1="124.239" x2="125.249" transform="translate(-12.906 -10.554)"/><line class="c" y1="124.239" x2="125.249" transform="translate(-24.146 -21.038)"/><line class="c" y1="124.239" x2="125.249" transform="translate(-34.784 -31.522)"/><line class="c" y1="124.239" x2="125.249" transform="translate(-44.992 -41.989)"/><line class="c" y1="124.239" x2="125.249" transform="translate(-54.684 -52.474)"/><line class="c" y1="124.239" x2="125.249" transform="translate(-125.812 -0.087)"/><line class="c" y1="124.239" x2="125.249" transform="translate(122.069 -123.028)"/><line class="c" y1="124.239" x2="125.249" transform="translate(-1.871 -123.028)"/><line class="c" y1="124.239" x2="125.249" transform="translate(-125.812 -123.028)"/></g><g class="b" transform="translate(744)"><line class="c" y1="124.239" x2="125.249" transform="translate(122.069 122.795)"/><line class="c" y1="124.239" x2="125.249" transform="translate(111.035 112.328)"/><line class="c" y1="124.239" x2="125.249" transform="translate(99.794 101.844)"/><line class="c" y1="124.239" x2="125.249" transform="translate(89.156 91.36)"/><line class="c" y1="124.239" x2="125.249" transform="translate(78.948 80.893)"/><line class="c" y1="124.239" x2="125.249" transform="translate(69.257 70.409)"/><line class="c" y1="124.239" x2="125.249" transform="translate(-1.871 122.795)"/><line class="c" y1="124.239" x2="125.249" transform="translate(-12.906 112.328)"/><line class="c" y1="124.239" x2="125.249" transform="translate(-24.146 101.844)"/><line class="c" y1="124.239" x2="125.249" transform="translate(-34.784 91.36)"/><line class="c" y1="124.239" x2="125.249" transform="translate(-44.992 80.893)"/><line class="c" y1="124.239" x2="125.249" transform="translate(-54.684 70.409)"/><line class="c" y1="124.239" x2="125.249" transform="translate(-125.812 122.795)"/><line class="c" y1="124.239" x2="125.249" transform="translate(122.069 -0.146)"/><line class="c" y1="124.239" x2="125.249" transform="translate(111.035 -10.613)"/><line class="c" y1="124.239" x2="125.249" transform="translate(99.794 -21.097)"/><line class="c" y1="124.239" x2="125.249" transform="translate(89.156 -31.581)"/><line class="c" y1="124.239" x2="125.249" transform="translate(78.948 -42.048)"/><line class="c" y1="124.239" x2="125.249" transform="translate(69.257 -52.533)"/><line class="c" y1="124.239" x2="125.249" transform="translate(-1.871 -0.146)"/><line class="c" y1="124.239" x2="125.249" transform="translate(-12.906 -10.613)"/><line class="c" y1="124.239" x2="125.249" transform="translate(-24.146 -21.097)"/><line class="c" y1="124.239" x2="125.249" transform="translate(-34.784 -31.581)"/><line class="c" y1="124.239" x2="125.249" transform="translate(-44.992 -42.048)"/><line class="c" y1="124.239" x2="125.249" transform="translate(-54.684 -52.533)"/><line class="c" y1="124.239" x2="125.249" transform="translate(-125.812 -0.146)"/><line class="c" y1="124.239" x2="125.249" transform="translate(122.069 -123.087)"/><line class="c" y1="124.239" x2="125.249" transform="translate(-1.871 -123.087)"/><line class="c" y1="124.239" x2="125.249" transform="translate(-125.812 -123.087)"/></g><g class="b" transform="translate(620)"><line class="c" y1="124.239" x2="125.249" transform="translate(122.129 122.854)"/><line class="c" y1="124.239" x2="125.249" transform="translate(111.094 112.387)"/><line class="c" y1="124.239" x2="125.249" transform="translate(99.854 101.903)"/><line class="c" y1="124.239" x2="125.249" transform="translate(89.215 91.419)"/><line class="c" y1="124.239" x2="125.249" transform="translate(79.008 80.952)"/><line class="c" y1="124.239" x2="125.249" transform="translate(69.316 70.467)"/><line class="c" y1="124.239" x2="125.249" transform="translate(-1.812 122.854)"/><line class="c" y1="124.239" x2="125.249" transform="translate(-12.846 112.387)"/><line class="c" y1="124.239" x2="125.249" transform="translate(-24.087 101.903)"/><line class="c" y1="124.239" x2="125.249" transform="translate(-34.725 91.419)"/><line class="c" y1="124.239" x2="125.249" transform="translate(-44.933 80.952)"/><line class="c" y1="124.239" x2="125.249" transform="translate(-54.624 70.467)"/><line class="c" y1="124.239" x2="125.249" transform="translate(-125.753 122.854)"/><line class="c" y1="124.239" x2="125.249" transform="translate(122.129 -0.087)"/><line class="c" y1="124.239" x2="125.249" transform="translate(111.094 -10.554)"/><line class="c" y1="124.239" x2="125.249" transform="translate(99.854 -21.038)"/><line class="c" y1="124.239" x2="125.249" transform="translate(89.215 -31.522)"/><line class="c" y1="124.239" x2="125.249" transform="translate(79.008 -41.989)"/><line class="c" y1="124.239" x2="125.249" transform="translate(69.316 -52.474)"/><line class="c" y1="124.239" x2="125.249" transform="translate(-1.812 -0.087)"/><line class="c" y1="124.239" x2="125.249" transform="translate(-12.846 -10.554)"/><line class="c" y1="124.239" x2="125.249" transform="translate(-24.087 -21.038)"/><line class="c" y1="124.239" x2="125.249" transform="translate(-34.725 -31.522)"/><line class="c" y1="124.239" x2="125.249" transform="translate(-44.933 -41.989)"/><line class="c" y1="124.239" x2="125.249" transform="translate(-54.624 -52.474)"/><line class="c" y1="124.239" x2="125.249" transform="translate(-125.753 -0.087)"/><line class="c" y1="124.239" x2="125.249" transform="translate(122.129 -123.028)"/><line class="c" y1="124.239" x2="125.249" transform="translate(-1.812 -123.028)"/><line class="c" y1="124.239" x2="125.249" transform="translate(-125.753 -123.028)"/></g><g class="b" transform="translate(620)"><line class="c" y1="124.239" x2="125.249" transform="translate(122.129 122.795)"/><line class="c" y1="124.239" x2="125.249" transform="translate(111.094 112.328)"/><line class="c" y1="124.239" x2="125.249" transform="translate(99.854 101.844)"/><line class="c" y1="124.239" x2="125.249" transform="translate(89.215 91.36)"/><line class="c" y1="124.239" x2="125.249" transform="translate(79.008 80.893)"/><line class="c" y1="124.239" x2="125.249" transform="translate(69.316 70.409)"/><line class="c" y1="124.239" x2="125.249" transform="translate(-1.812 122.795)"/><line class="c" y1="124.239" x2="125.249" transform="translate(-12.846 112.328)"/><line class="c" y1="124.239" x2="125.249" transform="translate(-24.087 101.844)"/><line class="c" y1="124.239" x2="125.249" transform="translate(-34.725 91.36)"/><line class="c" y1="124.239" x2="125.249" transform="translate(-44.933 80.893)"/><line class="c" y1="124.239" x2="125.249" transform="translate(-54.624 70.409)"/><line class="c" y1="124.239" x2="125.249" transform="translate(-125.753 122.795)"/><line class="c" y1="124.239" x2="125.249" transform="translate(122.129 -0.146)"/><line class="c" y1="124.239" x2="125.249" transform="translate(111.094 -10.613)"/><line class="c" y1="124.239" x2="125.249" transform="translate(99.854 -21.097)"/><line class="c" y1="124.239" x2="125.249" transform="translate(89.215 -31.581)"/><line class="c" y1="124.239" x2="125.249" transform="translate(79.008 -42.048)"/><line class="c" y1="124.239" x2="125.249" transform="translate(69.316 -52.533)"/><line class="c" y1="124.239" x2="125.249" transform="translate(-1.812 -0.146)"/><line class="c" y1="124.239" x2="125.249" transform="translate(-12.846 -10.613)"/><line class="c" y1="124.239" x2="125.249" transform="translate(-24.087 -21.097)"/><line class="c" y1="124.239" x2="125.249" transform="translate(-34.725 -31.581)"/><line class="c" y1="124.239" x2="125.249" transform="translate(-44.933 -42.048)"/><line class="c" y1="124.239" x2="125.249" transform="translate(-54.624 -52.533)"/><line class="c" y1="124.239" x2="125.249" transform="translate(-125.753 -0.146)"/><line class="c" y1="124.239" x2="125.249" transform="translate(122.129 -123.087)"/><line class="c" y1="124.239" x2="125.249" transform="translate(-1.812 -123.087)"/><line class="c" y1="124.239" x2="125.249" transform="translate(-125.753 -123.087)"/></g><g class="b" transform="translate(496)"><line class="c" y1="124.239" x2="125.249" transform="translate(122.188 122.854)"/><line class="c" y1="124.239" x2="125.249" transform="translate(111.154 112.387)"/><line class="c" y1="124.239" x2="125.249" transform="translate(99.913 101.903)"/><line class="c" y1="124.239" x2="125.249" transform="translate(89.275 91.419)"/><line class="c" y1="124.239" x2="125.249" transform="translate(79.067 80.952)"/><line class="c" y1="124.239" x2="125.249" transform="translate(69.376 70.467)"/><line class="c" y1="124.239" x2="125.249" transform="translate(-1.753 122.854)"/><line class="c" y1="124.239" x2="125.249" transform="translate(-12.787 112.387)"/><line class="c" y1="124.239" x2="125.249" transform="translate(-24.027 101.903)"/><line class="c" y1="124.239" x2="125.249" transform="translate(-34.666 91.419)"/><line class="c" y1="124.239" x2="125.249" transform="translate(-44.874 80.952)"/><line class="c" y1="124.239" x2="125.249" transform="translate(-54.565 70.467)"/><line class="c" y1="124.239" x2="125.249" transform="translate(-125.693 122.854)"/><line class="c" y1="124.239" x2="125.249" transform="translate(122.188 -0.087)"/><line class="c" y1="124.239" x2="125.249" transform="translate(111.154 -10.554)"/><line class="c" y1="124.239" x2="125.249" transform="translate(99.913 -21.038)"/><line class="c" y1="124.239" x2="125.249" transform="translate(89.275 -31.522)"/><line class="c" y1="124.239" x2="125.249" transform="translate(79.067 -41.989)"/><line class="c" y1="124.239" x2="125.249" transform="translate(69.376 -52.474)"/><line class="c" y1="124.239" x2="125.249" transform="translate(-1.753 -0.087)"/><line class="c" y1="124.239" x2="125.249" transform="translate(-12.787 -10.554)"/><line class="c" y1="124.239" x2="125.249" transform="translate(-24.027 -21.038)"/><line class="c" y1="124.239" x2="125.249" transform="translate(-34.666 -31.522)"/><line class="c" y1="124.239" x2="125.249" transform="translate(-44.874 -41.989)"/><line class="c" y1="124.239" x2="125.249" transform="translate(-54.565 -52.474)"/><line class="c" y1="124.239" x2="125.249" transform="translate(-125.693 -0.087)"/><line class="c" y1="124.239" x2="125.249" transform="translate(122.188 -123.028)"/><line class="c" y1="124.239" x2="125.249" transform="translate(-1.753 -123.028)"/><line class="c" y1="124.239" x2="125.249" transform="translate(-125.693 -123.028)"/></g><g class="b" transform="translate(496)"><line class="c" y1="124.239" x2="125.249" transform="translate(122.188 122.795)"/><line class="c" y1="124.239" x2="125.249" transform="translate(111.154 112.328)"/><line class="c" y1="124.239" x2="125.249" transform="translate(99.913 101.844)"/><line class="c" y1="124.239" x2="125.249" transform="translate(89.275 91.36)"/><line class="c" y1="124.239" x2="125.249" transform="translate(79.067 80.893)"/><line class="c" y1="124.239" x2="125.249" transform="translate(69.376 70.409)"/><line class="c" y1="124.239" x2="125.249" transform="translate(-1.753 122.795)"/><line class="c" y1="124.239" x2="125.249" transform="translate(-12.787 112.328)"/><line class="c" y1="124.239" x2="125.249" transform="translate(-24.027 101.844)"/><line class="c" y1="124.239" x2="125.249" transform="translate(-34.666 91.36)"/><line class="c" y1="124.239" x2="125.249" transform="translate(-44.874 80.893)"/><line class="c" y1="124.239" x2="125.249" transform="translate(-54.565 70.409)"/><line class="c" y1="124.239" x2="125.249" transform="translate(-125.693 122.795)"/><line class="c" y1="124.239" x2="125.249" transform="translate(122.188 -0.146)"/><line class="c" y1="124.239" x2="125.249" transform="translate(111.154 -10.613)"/><line class="c" y1="124.239" x2="125.249" transform="translate(99.913 -21.097)"/><line class="c" y1="124.239" x2="125.249" transform="translate(89.275 -31.581)"/><line class="c" y1="124.239" x2="125.249" transform="translate(79.067 -42.048)"/><line class="c" y1="124.239" x2="125.249" transform="translate(69.376 -52.533)"/><line class="c" y1="124.239" x2="125.249" transform="translate(-1.753 -0.146)"/><line class="c" y1="124.239" x2="125.249" transform="translate(-12.787 -10.613)"/><line class="c" y1="124.239" x2="125.249" transform="translate(-24.027 -21.097)"/><line class="c" y1="124.239" x2="125.249" transform="translate(-34.666 -31.581)"/><line class="c" y1="124.239" x2="125.249" transform="translate(-44.874 -42.048)"/><line class="c" y1="124.239" x2="125.249" transform="translate(-54.565 -52.533)"/><line class="c" y1="124.239" x2="125.249" transform="translate(-125.693 -0.146)"/><line class="c" y1="124.239" x2="125.249" transform="translate(122.188 -123.087)"/><line class="c" y1="124.239" x2="125.249" transform="translate(-1.753 -123.087)"/><line class="c" y1="124.239" x2="125.249" transform="translate(-125.693 -123.087)"/></g><g class="b" transform="translate(372)"><line class="c" y1="124.239" x2="125.249" transform="translate(122.247 122.854)"/><line class="c" y1="124.239" x2="125.249" transform="translate(111.213 112.387)"/><line class="c" y1="124.239" x2="125.249" transform="translate(99.973 101.903)"/><line class="c" y1="124.239" x2="125.249" transform="translate(89.334 91.419)"/><line class="c" y1="124.239" x2="125.249" transform="translate(79.126 80.952)"/><line class="c" y1="124.239" x2="125.249" transform="translate(69.435 70.467)"/><line class="c" y1="124.239" x2="125.249" transform="translate(-1.693 122.854)"/><line class="c" y1="124.239" x2="125.249" transform="translate(-12.727 112.387)"/><line class="c" y1="124.239" x2="125.249" transform="translate(-23.968 101.903)"/><line class="c" y1="124.239" x2="125.249" transform="translate(-34.606 91.419)"/><line class="c" y1="124.239" x2="125.249" transform="translate(-44.814 80.952)"/><line class="c" y1="124.239" x2="125.249" transform="translate(-54.506 70.467)"/><line class="c" y1="124.239" x2="125.249" transform="translate(-125.634 122.854)"/><line class="c" y1="124.239" x2="125.249" transform="translate(122.247 -0.087)"/><line class="c" y1="124.239" x2="125.249" transform="translate(111.213 -10.554)"/><line class="c" y1="124.239" x2="125.249" transform="translate(99.973 -21.038)"/><line class="c" y1="124.239" x2="125.249" transform="translate(89.334 -31.522)"/><line class="c" y1="124.239" x2="125.249" transform="translate(79.126 -41.989)"/><line class="c" y1="124.239" x2="125.249" transform="translate(69.435 -52.474)"/><line class="c" y1="124.239" x2="125.249" transform="translate(-1.693 -0.087)"/><line class="c" y1="124.239" x2="125.249" transform="translate(-12.727 -10.554)"/><line class="c" y1="124.239" x2="125.249" transform="translate(-23.968 -21.038)"/><line class="c" y1="124.239" x2="125.249" transform="translate(-34.606 -31.522)"/><line class="c" y1="124.239" x2="125.249" transform="translate(-44.814 -41.989)"/><line class="c" y1="124.239" x2="125.249" transform="translate(-54.506 -52.474)"/><line class="c" y1="124.239" x2="125.249" transform="translate(-125.634 -0.087)"/><line class="c" y1="124.239" x2="125.249" transform="translate(122.247 -123.028)"/><line class="c" y1="124.239" x2="125.249" transform="translate(-1.693 -123.028)"/><line class="c" y1="124.239" x2="125.249" transform="translate(-125.634 -123.028)"/></g><g class="b" transform="translate(372)"><line class="c" y1="124.239" x2="125.249" transform="translate(122.247 122.795)"/><line class="c" y1="124.239" x2="125.249" transform="translate(111.213 112.328)"/><line class="c" y1="124.239" x2="125.249" transform="translate(99.973 101.844)"/><line class="c" y1="124.239" x2="125.249" transform="translate(89.334 91.36)"/><line class="c" y1="124.239" x2="125.249" transform="translate(79.126 80.893)"/><line class="c" y1="124.239" x2="125.249" transform="translate(69.435 70.409)"/><line class="c" y1="124.239" x2="125.249" transform="translate(-1.693 122.795)"/><line class="c" y1="124.239" x2="125.249" transform="translate(-12.727 112.328)"/><line class="c" y1="124.239" x2="125.249" transform="translate(-23.968 101.844)"/><line class="c" y1="124.239" x2="125.249" transform="translate(-34.606 91.36)"/><line class="c" y1="124.239" x2="125.249" transform="translate(-44.814 80.893)"/><line class="c" y1="124.239" x2="125.249" transform="translate(-54.506 70.409)"/><line class="c" y1="124.239" x2="125.249" transform="translate(-125.634 122.795)"/><line class="c" y1="124.239" x2="125.249" transform="translate(122.247 -0.146)"/><line class="c" y1="124.239" x2="125.249" transform="translate(111.213 -10.613)"/><line class="c" y1="124.239" x2="125.249" transform="translate(99.973 -21.097)"/><line class="c" y1="124.239" x2="125.249" transform="translate(89.334 -31.581)"/><line class="c" y1="124.239" x2="125.249" transform="translate(79.126 -42.048)"/><line class="c" y1="124.239" x2="125.249" transform="translate(69.435 -52.533)"/><line class="c" y1="124.239" x2="125.249" transform="translate(-1.693 -0.146)"/><line class="c" y1="124.239" x2="125.249" transform="translate(-12.727 -10.613)"/><line class="c" y1="124.239" x2="125.249" transform="translate(-23.968 -21.097)"/><line class="c" y1="124.239" x2="125.249" transform="translate(-34.606 -31.581)"/><line class="c" y1="124.239" x2="125.249" transform="translate(-44.814 -42.048)"/><line class="c" y1="124.239" x2="125.249" transform="translate(-54.506 -52.533)"/><line class="c" y1="124.239" x2="125.249" transform="translate(-125.634 -0.146)"/><line class="c" y1="124.239" x2="125.249" transform="translate(122.247 -123.087)"/><line class="c" y1="124.239" x2="125.249" transform="translate(-1.693 -123.087)"/><line class="c" y1="124.239" x2="125.249" transform="translate(-125.634 -123.087)"/></g><g class="b" transform="translate(248)"><line class="c" y1="124.239" x2="125.249" transform="translate(122.307 122.854)"/><line class="c" y1="124.239" x2="125.249" transform="translate(111.273 112.387)"/><line class="c" y1="124.239" x2="125.249" transform="translate(100.032 101.903)"/><line class="c" y1="124.239" x2="125.249" transform="translate(89.394 91.419)"/><line class="c" y1="124.239" x2="125.249" transform="translate(79.186 80.952)"/><line class="c" y1="124.239" x2="125.249" transform="translate(69.494 70.467)"/><line class="c" y1="124.239" x2="125.249" transform="translate(-1.634 122.854)"/><line class="c" y1="124.239" x2="125.249" transform="translate(-12.668 112.387)"/><line class="c" y1="124.239" x2="125.249" transform="translate(-23.909 101.903)"/><line class="c" y1="124.239" x2="125.249" transform="translate(-34.547 91.419)"/><line class="c" y1="124.239" x2="125.249" transform="translate(-44.755 80.952)"/><line class="c" y1="124.239" x2="125.249" transform="translate(-54.446 70.467)"/><line class="c" y1="124.239" x2="125.249" transform="translate(-125.574 122.854)"/><line class="c" y1="124.239" x2="125.249" transform="translate(122.307 -0.087)"/><line class="c" y1="124.239" x2="125.249" transform="translate(111.273 -10.554)"/><line class="c" y1="124.239" x2="125.249" transform="translate(100.032 -21.038)"/><line class="c" y1="124.239" x2="125.249" transform="translate(89.394 -31.522)"/><line class="c" y1="124.239" x2="125.249" transform="translate(79.186 -41.989)"/><line class="c" y1="124.239" x2="125.249" transform="translate(69.494 -52.474)"/><line class="c" y1="124.239" x2="125.249" transform="translate(-1.634 -0.087)"/><line class="c" y1="124.239" x2="125.249" transform="translate(-12.668 -10.554)"/><line class="c" y1="124.239" x2="125.249" transform="translate(-23.909 -21.038)"/><line class="c" y1="124.239" x2="125.249" transform="translate(-34.547 -31.522)"/><line class="c" y1="124.239" x2="125.249" transform="translate(-44.755 -41.989)"/><line class="c" y1="124.239" x2="125.249" transform="translate(-54.446 -52.474)"/><line class="c" y1="124.239" x2="125.249" transform="translate(-125.574 -0.087)"/><line class="c" y1="124.239" x2="125.249" transform="translate(122.307 -123.028)"/><line class="c" y1="124.239" x2="125.249" transform="translate(-1.634 -123.028)"/><line class="c" y1="124.239" x2="125.249" transform="translate(-125.574 -123.028)"/></g><g class="b" transform="translate(248)"><line class="c" y1="124.239" x2="125.249" transform="translate(122.307 122.795)"/><line class="c" y1="124.239" x2="125.249" transform="translate(111.273 112.328)"/><line class="c" y1="124.239" x2="125.249" transform="translate(100.032 101.844)"/><line class="c" y1="124.239" x2="125.249" transform="translate(89.394 91.36)"/><line class="c" y1="124.239" x2="125.249" transform="translate(79.186 80.893)"/><line class="c" y1="124.239" x2="125.249" transform="translate(69.494 70.409)"/><line class="c" y1="124.239" x2="125.249" transform="translate(-1.634 122.795)"/><line class="c" y1="124.239" x2="125.249" transform="translate(-12.668 112.328)"/><line class="c" y1="124.239" x2="125.249" transform="translate(-23.909 101.844)"/><line class="c" y1="124.239" x2="125.249" transform="translate(-34.547 91.36)"/><line class="c" y1="124.239" x2="125.249" transform="translate(-44.755 80.893)"/><line class="c" y1="124.239" x2="125.249" transform="translate(-54.446 70.409)"/><line class="c" y1="124.239" x2="125.249" transform="translate(-125.574 122.795)"/><line class="c" y1="124.239" x2="125.249" transform="translate(122.307 -0.146)"/><line class="c" y1="124.239" x2="125.249" transform="translate(111.273 -10.613)"/><line class="c" y1="124.239" x2="125.249" transform="translate(100.032 -21.097)"/><line class="c" y1="124.239" x2="125.249" transform="translate(89.394 -31.581)"/><line class="c" y1="124.239" x2="125.249" transform="translate(79.186 -42.048)"/><line class="c" y1="124.239" x2="125.249" transform="translate(69.494 -52.533)"/><line class="c" y1="124.239" x2="125.249" transform="translate(-1.634 -0.146)"/><line class="c" y1="124.239" x2="125.249" transform="translate(-12.668 -10.613)"/><line class="c" y1="124.239" x2="125.249" transform="translate(-23.909 -21.097)"/><line class="c" y1="124.239" x2="125.249" transform="translate(-34.547 -31.581)"/><line class="c" y1="124.239" x2="125.249" transform="translate(-44.755 -42.048)"/><line class="c" y1="124.239" x2="125.249" transform="translate(-54.446 -52.533)"/><line class="c" y1="124.239" x2="125.249" transform="translate(-125.574 -0.146)"/><line class="c" y1="124.239" x2="125.249" transform="translate(122.307 -123.087)"/><line class="c" y1="124.239" x2="125.249" transform="translate(-1.634 -123.087)"/><line class="c" y1="124.239" x2="125.249" transform="translate(-125.574 -123.087)"/></g><g class="b" transform="translate(124)"><line class="c" y1="124.239" x2="125.249" transform="translate(122.366 122.854)"/><line class="c" y1="124.239" x2="125.249" transform="translate(111.332 112.387)"/><line class="c" y1="124.239" x2="125.249" transform="translate(100.091 101.903)"/><line class="c" y1="124.239" x2="125.249" transform="translate(89.453 91.419)"/><line class="c" y1="124.239" x2="125.249" transform="translate(79.245 80.952)"/><line class="c" y1="124.239" x2="125.249" transform="translate(69.554 70.467)"/><line class="c" y1="124.239" x2="125.249" transform="translate(-1.574 122.854)"/><line class="c" y1="124.239" x2="125.249" transform="translate(-12.608 112.387)"/><line class="c" y1="124.239" x2="125.249" transform="translate(-23.849 101.903)"/><line class="c" y1="124.239" x2="125.249" transform="translate(-34.487 91.419)"/><line class="c" y1="124.239" x2="125.249" transform="translate(-44.695 80.952)"/><line class="c" y1="124.239" x2="125.249" transform="translate(-54.387 70.467)"/><line class="c" y1="124.239" x2="125.249" transform="translate(-125.515 122.854)"/><line class="c" y1="124.239" x2="125.249" transform="translate(122.366 -0.087)"/><line class="c" y1="124.239" x2="125.249" transform="translate(111.332 -10.554)"/><line class="c" y1="124.239" x2="125.249" transform="translate(100.091 -21.038)"/><line class="c" y1="124.239" x2="125.249" transform="translate(89.453 -31.522)"/><line class="c" y1="124.239" x2="125.249" transform="translate(79.245 -41.989)"/><line class="c" y1="124.239" x2="125.249" transform="translate(69.554 -52.474)"/><line class="c" y1="124.239" x2="125.249" transform="translate(-1.574 -0.087)"/><line class="c" y1="124.239" x2="125.249" transform="translate(-12.608 -10.554)"/><line class="c" y1="124.239" x2="125.249" transform="translate(-23.849 -21.038)"/><line class="c" y1="124.239" x2="125.249" transform="translate(-34.487 -31.522)"/><line class="c" y1="124.239" x2="125.249" transform="translate(-44.695 -41.989)"/><line class="c" y1="124.239" x2="125.249" transform="translate(-54.387 -52.474)"/><line class="c" y1="124.239" x2="125.249" transform="translate(-125.515 -0.087)"/><line class="c" y1="124.239" x2="125.249" transform="translate(122.366 -123.028)"/><line class="c" y1="124.239" x2="125.249" transform="translate(-1.574 -123.028)"/><line class="c" y1="124.239" x2="125.249" transform="translate(-125.515 -123.028)"/></g><g class="b" transform="translate(124)"><line class="c" y1="124.239" x2="125.249" transform="translate(122.366 122.795)"/><line class="c" y1="124.239" x2="125.249" transform="translate(111.332 112.328)"/><line class="c" y1="124.239" x2="125.249" transform="translate(100.091 101.844)"/><line class="c" y1="124.239" x2="125.249" transform="translate(89.453 91.36)"/><line class="c" y1="124.239" x2="125.249" transform="translate(79.245 80.893)"/><line class="c" y1="124.239" x2="125.249" transform="translate(69.554 70.409)"/><line class="c" y1="124.239" x2="125.249" transform="translate(-1.574 122.795)"/><line class="c" y1="124.239" x2="125.249" transform="translate(-12.608 112.328)"/><line class="c" y1="124.239" x2="125.249" transform="translate(-23.849 101.844)"/><line class="c" y1="124.239" x2="125.249" transform="translate(-34.487 91.36)"/><line class="c" y1="124.239" x2="125.249" transform="translate(-44.695 80.893)"/><line class="c" y1="124.239" x2="125.249" transform="translate(-54.387 70.409)"/><line class="c" y1="124.239" x2="125.249" transform="translate(-125.515 122.795)"/><line class="c" y1="124.239" x2="125.249" transform="translate(122.366 -0.146)"/><line class="c" y1="124.239" x2="125.249" transform="translate(111.332 -10.613)"/><line class="c" y1="124.239" x2="125.249" transform="translate(100.091 -21.097)"/><line class="c" y1="124.239" x2="125.249" transform="translate(89.453 -31.581)"/><line class="c" y1="124.239" x2="125.249" transform="translate(79.245 -42.048)"/><line class="c" y1="124.239" x2="125.249" transform="translate(69.554 -52.533)"/><line class="c" y1="124.239" x2="125.249" transform="translate(-1.574 -0.146)"/><line class="c" y1="124.239" x2="125.249" transform="translate(-12.608 -10.613)"/><line class="c" y1="124.239" x2="125.249" transform="translate(-23.849 -21.097)"/><line class="c" y1="124.239" x2="125.249" transform="translate(-34.487 -31.581)"/><line class="c" y1="124.239" x2="125.249" transform="translate(-44.695 -42.048)"/><line class="c" y1="124.239" x2="125.249" transform="translate(-54.387 -52.533)"/><line class="c" y1="124.239" x2="125.249" transform="translate(-125.515 -0.146)"/><line class="c" y1="124.239" x2="125.249" transform="translate(122.366 -123.087)"/><line class="c" y1="124.239" x2="125.249" transform="translate(-1.574 -123.087)"/><line class="c" y1="124.239" x2="125.249" transform="translate(-125.515 -123.087)"/></g><g class="b"><line class="c" y1="124.239" x2="125.249" transform="translate(122.426 122.854)"/><line class="c" y1="124.239" x2="125.249" transform="translate(111.392 112.387)"/><line class="c" y1="124.239" x2="125.249" transform="translate(100.151 101.903)"/><line class="c" y1="124.239" x2="125.249" transform="translate(89.513 91.419)"/><line class="c" y1="124.239" x2="125.249" transform="translate(79.305 80.952)"/><line class="c" y1="124.239" x2="125.249" transform="translate(69.613 70.467)"/><line class="c" y1="124.239" x2="125.249" transform="translate(-1.515 122.854)"/><line class="c" y1="124.239" x2="125.249" transform="translate(-12.549 112.387)"/><line class="c" y1="124.239" x2="125.249" transform="translate(-23.79 101.903)"/><line class="c" y1="124.239" x2="125.249" transform="translate(-34.428 91.419)"/><line class="c" y1="124.239" x2="125.249" transform="translate(-44.636 80.952)"/><line class="c" y1="124.239" x2="125.249" transform="translate(-54.327 70.467)"/><line class="c" y1="124.239" x2="125.249" transform="translate(-125.455 122.854)"/><line class="c" y1="124.239" x2="125.249" transform="translate(122.426 -0.087)"/><line class="c" y1="124.239" x2="125.249" transform="translate(111.392 -10.554)"/><line class="c" y1="124.239" x2="125.249" transform="translate(100.151 -21.038)"/><line class="c" y1="124.239" x2="125.249" transform="translate(89.513 -31.522)"/><line class="c" y1="124.239" x2="125.249" transform="translate(79.305 -41.989)"/><line class="c" y1="124.239" x2="125.249" transform="translate(69.613 -52.474)"/><line class="c" y1="124.239" x2="125.249" transform="translate(-1.515 -0.087)"/><line class="c" y1="124.239" x2="125.249" transform="translate(-12.549 -10.554)"/><line class="c" y1="124.239" x2="125.249" transform="translate(-23.79 -21.038)"/><line class="c" y1="124.239" x2="125.249" transform="translate(-34.428 -31.522)"/><line class="c" y1="124.239" x2="125.249" transform="translate(-44.636 -41.989)"/><line class="c" y1="124.239" x2="125.249" transform="translate(-54.327 -52.474)"/><line class="c" y1="124.239" x2="125.249" transform="translate(-125.455 -0.087)"/><line class="c" y1="124.239" x2="125.249" transform="translate(122.426 -123.028)"/><line class="c" y1="124.239" x2="125.249" transform="translate(-1.515 -123.028)"/><line class="c" y1="124.239" x2="125.249" transform="translate(-125.455 -123.028)"/></g><g class="b"><line class="c" y1="124.239" x2="125.249" transform="translate(122.426 122.795)"/><line class="c" y1="124.239" x2="125.249" transform="translate(111.392 112.328)"/><line class="c" y1="124.239" x2="125.249" transform="translate(100.151 101.844)"/><line class="c" y1="124.239" x2="125.249" transform="translate(89.513 91.36)"/><line class="c" y1="124.239" x2="125.249" transform="translate(79.305 80.893)"/><line class="c" y1="124.239" x2="125.249" transform="translate(69.613 70.409)"/><line class="c" y1="124.239" x2="125.249" transform="translate(-1.515 122.795)"/><line class="c" y1="124.239" x2="125.249" transform="translate(-12.549 112.328)"/><line class="c" y1="124.239" x2="125.249" transform="translate(-23.79 101.844)"/><line class="c" y1="124.239" x2="125.249" transform="translate(-34.428 91.36)"/><line class="c" y1="124.239" x2="125.249" transform="translate(-44.636 80.893)"/><line class="c" y1="124.239" x2="125.249" transform="translate(-54.327 70.409)"/><line class="c" y1="124.239" x2="125.249" transform="translate(-125.455 122.795)"/><line class="c" y1="124.239" x2="125.249" transform="translate(122.426 -0.146)"/><line class="c" y1="124.239" x2="125.249" transform="translate(111.392 -10.613)"/><line class="c" y1="124.239" x2="125.249" transform="translate(100.151 -21.097)"/><line class="c" y1="124.239" x2="125.249" transform="translate(89.513 -31.581)"/><line class="c" y1="124.239" x2="125.249" transform="translate(79.305 -42.048)"/><line class="c" y1="124.239" x2="125.249" transform="translate(69.613 -52.533)"/><line class="c" y1="124.239" x2="125.249" transform="translate(-1.515 -0.146)"/><line class="c" y1="124.239" x2="125.249" transform="translate(-12.549 -10.613)"/><line class="c" y1="124.239" x2="125.249" transform="translate(-23.79 -21.097)"/><line class="c" y1="124.239" x2="125.249" transform="translate(-34.428 -31.581)"/><line class="c" y1="124.239" x2="125.249" transform="translate(-44.636 -42.048)"/><line class="c" y1="124.239" x2="125.249" transform="translate(-54.327 -52.533)"/><line class="c" y1="124.239" x2="125.249" transform="translate(-125.455 -0.146)"/><line class="c" y1="124.239" x2="125.249" transform="translate(122.426 -123.087)"/><line class="c" y1="124.239" x2="125.249" transform="translate(-1.515 -123.087)"/><line class="c" y1="124.239" x2="125.249" transform="translate(-125.455 -123.087)"/></g><rect class="a" width="850.955" height="85.123" transform="translate(7.832 24.564)"/></g></g></svg>