<svg xmlns="http://www.w3.org/2000/svg" xmlns:xlink="http://www.w3.org/1999/xlink" width="368" height="374" viewBox="0 0 368 374">
  <defs>
    <filter id="Retângulo_2024" x="0" y="0" width="368" height="374" filterUnits="userSpaceOnUse">
      <feOffset dy="3" input="SourceAlpha"/>
      <feGaussianBlur stdDeviation="3" result="blur"/>
      <feFlood flood-opacity="0.161"/>
      <feComposite operator="in" in2="blur"/>
      <feComposite in="SourceGraphic"/>
    </filter>
    <clipPath id="clip-path">
      <rect id="Retângulo_1932" data-name="Retângulo 1932" width="93.749" height="98.942"/>
    </clipPath>
  </defs>
  <g id="Grupo_380" data-name="Grupo 380" transform="translate(-9 -311)">
    <g transform="matrix(1, 0, 0, 1, 9, 311)" filter="url(#Retângulo_2024)">
      <rect id="Retângulo_2024-2" data-name="Retângulo 2024" width="350" height="356" transform="translate(9 6)" fill="#db3f14"/>
    </g>
    <path id="Caminho_1538" data-name="Caminho 1538" d="M15,0H334a15,15,0,0,1,15,15V340.064a15,15,0,0,1-15,15H15a15,15,0,0,1-15-15V15A15,15,0,0,1,15,0Z" transform="translate(18.074 318.084)" fill="#db3f14"/>
    <rect id="Retângulo_2011" data-name="Retângulo 2011" width="313.845" height="244.989" transform="translate(53.304 345.01)" fill="#e87f05"/>
    <g id="Grupo_337" data-name="Grupo 337" transform="translate(207.618 345.01)">
      <path id="Caminho_1437" data-name="Caminho 1437" d="M599.8,102.29l3.325,3.485,94.752-99.99L694.552,2.3Z" transform="translate(-565.658 -1.708)" fill="#db3f14"/>
      <path id="Caminho_1438" data-name="Caminho 1438" d="M551.325,91.377,638.173-.3h-6.628L548,87.869Z" transform="translate(-525.656 0.3)" fill="#db3f14"/>
      <path id="Caminho_1439" data-name="Caminho 1439" d="M501.2,79.032,576.389-.3h-6.628L497.9,75.547Z" transform="translate(-486.967 0.3)" fill="#db3f14"/>
      <path id="Caminho_1440" data-name="Caminho 1440" d="M453.225,66.823,516.818-.3H510.19L449.9,63.316Z" transform="translate(-449.9 0.3)" fill="#db3f14"/>
    </g>
    <g id="Grupo_338" data-name="Grupo 338" transform="translate(335.533 345.01)">
      <path id="Caminho_1441" data-name="Caminho 1441" d="M1069.125,17.352,1085.844-.3h-6.628L1065.8,13.844Z" transform="translate(-1053.432 0.3)" fill="#db3f14"/>
      <path id="Caminho_1442" data-name="Caminho 1442" d="M1014.8,4.825,1019.677-.3h-6.651L1011.5,1.34Z" transform="translate(-1011.5 0.3)" fill="#db3f14"/>
    </g>
    <g id="Grupo_339" data-name="Grupo 339" transform="translate(206.502 345.01)">
      <path id="Caminho_1443" data-name="Caminho 1443" d="M657.5,17.352,674.221-.3h-6.628L654.2,13.844Z" transform="translate(-641.809 0.3)" fill="#bc1751"/>
      <path id="Caminho_1444" data-name="Caminho 1444" d="M603.125,4.825,607.977-.3h-6.628L599.8,1.34Z" transform="translate(-599.8 0.3)" fill="#bc1751"/>
    </g>
    <rect id="Retângulo_2012" data-name="Retângulo 2012" width="93.749" height="12.003" transform="translate(255.267 345.01)" fill="none"/>
    <g id="Grupo_340" data-name="Grupo 340" transform="translate(207.618 406.986)">
      <path id="Caminho_1445" data-name="Caminho 1445" d="M599.8,536.69l3.325,3.485,94.752-99.99-3.325-3.485Z" transform="translate(-565.658 -399.733)" fill="#db3f14"/>
      <path id="Caminho_1446" data-name="Caminho 1446" d="M548,482.19l3.325,3.508,94.729-99.99-3.3-3.508Z" transform="translate(-525.656 -357.647)" fill="#db3f14"/>
      <path id="Caminho_1447" data-name="Caminho 1447" d="M497.9,428.09l3.3,3.508,94.752-99.99-3.3-3.508Z" transform="translate(-486.967 -315.869)" fill="#db3f14"/>
      <path id="Caminho_1448" data-name="Caminho 1448" d="M449.9,374.39l3.325,3.508,94.752-99.99-3.325-3.508Z" transform="translate(-449.9 -274.4)" fill="#db3f14"/>
    </g>
    <path id="Caminho_1539" data-name="Caminho 1539" d="M1069.125,427.349l16.9-17.857V402.5L1065.8,423.842Z" transform="translate(-717.9 33.841)" fill="#bc1751"/>
    <path id="Caminho_1540" data-name="Caminho 1540" d="M1014.8,328.1l29.291-30.908V290.2L1011.5,324.616Z" transform="translate(-675.967 120.659)" fill="#db3f14"/>
    <path id="Caminho_1541" data-name="Caminho 1541" d="M962.925,231.382l41.089-43.39V181L959.6,227.875Z" transform="translate(-635.888 205.094)" fill="#db3f14"/>
    <path id="Caminho_1542" data-name="Caminho 1542" d="M912.825,136.408l52.5-55.416V74L909.5,132.924Z" transform="translate(-597.2 287.934)" fill="#db3f14"/>
    <path id="Caminho_1543" data-name="Caminho 1543" d="M864.9,66.823,928.336-.141V-.3h-6.469L861.6,63.316Z" transform="translate(-560.21 345.31)" fill="#db3f14"/>
    <g id="Grupo_342" data-name="Grupo 342" transform="translate(104.788 359.861)">
      <line id="Linha_636" data-name="Linha 636" y1="99.99" x2="94.752" fill="none" stroke="#bc1751" stroke-width="3.6"/>
    </g>
    <rect id="Retângulo_2013" data-name="Retângulo 2013" width="93.749" height="98.942" transform="translate(255.267 357.014)" fill="none"/>
    <g id="Grupo_343" data-name="Grupo 343" transform="translate(316.081 535.062)">
      <path id="Caminho_1459" data-name="Caminho 1459" d="M1132.746,1049.8l-6.446,6.81h6.446Z" transform="translate(-1080.701 -1001.673)" fill="#db3f14"/>
      <path id="Caminho_1460" data-name="Caminho 1460" d="M1054.442,942.8,1024.9,973.981h6.628l22.913-24.189Z" transform="translate(-1002.397 -919.044)" fill="#db3f14"/>
      <path id="Caminho_1461" data-name="Caminho 1461" d="M978.145,838.5,926.1,893.438h6.628l45.417-47.922Z" transform="translate(-926.1 -838.5)" fill="#db3f14"/>
    </g>
    <path id="Caminho_1544" data-name="Caminho 1544" d="M1069.125,861.75l16.9-17.857V836.9L1065.8,858.265Z" transform="translate(-717.9 -302.202)" fill="#db3f14"/>
    <path id="Caminho_1545" data-name="Caminho 1545" d="M1014.8,762.5l29.291-30.908V724.6L1011.5,759.016Z" transform="translate(-675.967 -215.274)" fill="#db3f14"/>
    <path id="Caminho_1546" data-name="Caminho 1546" d="M962.925,665.782l41.089-43.39V615.4L959.6,662.275Z" transform="translate(-635.888 -130.87)" fill="#db3f14"/>
    <path id="Caminho_1547" data-name="Caminho 1547" d="M912.825,570.831l52.5-55.439V508.4L909.5,567.324Z" transform="translate(-597.2 -48.155)" fill="#db3f14"/>
    <path id="Caminho_1550" data-name="Caminho 1550" d="M599.8,536.69l3.325,3.485,94.752-99.99-3.325-3.485Z" transform="translate(-358.04 7.147)" fill="#db3f14"/>
    <line id="Linha_690" data-name="Linha 690" y1="99.99" x2="94.752" transform="translate(210.147 433.277)" fill="none" stroke="#bc1751" stroke-width="3.6"/>
    <line id="Linha_691" data-name="Linha 691" y1="99.99" x2="94.729" transform="translate(192.861 421.039)" fill="none" stroke="#bc1751" stroke-width="3.6"/>
    <line id="Linha_692" data-name="Linha 692" y1="99.99" x2="94.752" transform="translate(176.315 408.892)" fill="none" stroke="#bc1751" stroke-width="3.6"/>
    <g id="Grupo_344" data-name="Grupo 344" transform="translate(104.788 457.803)">
      <line id="Linha_640" data-name="Linha 640" y1="99.99" x2="94.752" fill="none" stroke="#bc1751" stroke-width="3.6"/>
    </g>
    <path id="Caminho_1551" data-name="Caminho 1551" d="M1069.125,427.349l16.9-17.857V402.5L1065.8,423.842Z" transform="translate(-717.9 33.841)" fill="#db3f14"/>
    <g id="Grupo_346" data-name="Grupo 346" transform="translate(104.788 359.861)">
      <line id="Linha_641" data-name="Linha 641" y1="99.99" x2="94.752" fill="none" stroke="#bc1751" stroke-width="3.6"/>
    </g>
    <rect id="Retângulo_2014" data-name="Retângulo 2014" width="93.749" height="98.942" transform="translate(255.267 454.956)" fill="none"/>
    <g id="Grupo_347" data-name="Grupo 347" transform="translate(222.332 505.521)">
      <path id="Caminho_1471" data-name="Caminho 1471" d="M957.763,926.1,924.6,961.085h6.628l29.838-31.5Z" transform="translate(-831.192 -876.606)" fill="#db3f14"/>
      <path id="Caminho_1472" data-name="Caminho 1472" d="M863.13,871.1,818.1,918.612h6.651l41.7-44Z" transform="translate(-748.95 -834.133)" fill="#db3f14"/>
      <path id="Caminho_1473" data-name="Caminho 1473" d="M771.483,816.6,714.7,876.526h6.628l53.457-56.418Z" transform="translate(-669.101 -792.047)" fill="#db3f14"/>
      <path id="Caminho_1474" data-name="Caminho 1474" d="M681.767,762.5,613.3,834.748h6.628l65.142-68.74Z" transform="translate(-590.797 -750.269)" fill="#db3f14"/>
      <path id="Caminho_1475" data-name="Caminho 1475" d="M594.538,708.8,514.5,793.279h6.628l76.735-80.972Z" transform="translate(-514.5 -708.8)" fill="#db3f14"/>
    </g>
    <g id="Grupo_349" data-name="Grupo 349" transform="translate(104.788 457.803)">
      <line id="Linha_642" data-name="Linha 642" y1="99.99" x2="94.752" fill="none" stroke="#bc1751" stroke-width="3.6"/>
    </g>
    <rect id="Retângulo_2015" data-name="Retângulo 2015" width="93.749" height="36.101" transform="translate(255.267 553.899)" fill="none"/>
    <g id="Grupo_351" data-name="Grupo 351" transform="translate(27.338 345.01)">
      <path id="Caminho_1481" data-name="Caminho 1481" d="M188.2,102.29l3.325,3.485,94.729-99.99-3.3-3.485Z" transform="translate(-154.058 -1.708)" fill="#bc1751"/>
      <path id="Caminho_1482" data-name="Caminho 1482" d="M139.7,91.377,226.573-.3h-6.628L136.4,87.869Z" transform="translate(-114.056 0.3)" fill="#bc1751"/>
      <path id="Caminho_1483" data-name="Caminho 1483" d="M89.525,79.032,164.712-.3h-6.628L86.2,75.547Z" transform="translate(-75.29 0.3)" fill="#bc1751"/>
      <path id="Caminho_1484" data-name="Caminho 1484" d="M41.6,66.823,105.2-.3H98.567L38.3,63.316Z" transform="translate(-38.3 0.3)" fill="#bc1751"/>
    </g>
    <g id="Grupo_352" data-name="Grupo 352" transform="translate(206.502 345.01)">
      <path id="Caminho_1485" data-name="Caminho 1485" d="M657.5,17.352,674.221-.3h-6.628L654.2,13.844Z" transform="translate(-641.809 0.3)" fill="#bc1751"/>
      <path id="Caminho_1486" data-name="Caminho 1486" d="M603.125,4.825,607.977-.3h-6.628L599.8,1.34Z" transform="translate(-599.8 0.3)" fill="#bc1751"/>
    </g>
    <rect id="Retângulo_2016" data-name="Retângulo 2016" width="93.749" height="12.003" transform="translate(103.789 345.01)" fill="none"/>
    <g id="Grupo_353" data-name="Grupo 353" transform="translate(103.789 357.014)">
      <g id="Grupo_297" data-name="Grupo 297">
        <g id="Grupo_289" data-name="Grupo 289" clip-path="url(#clip-path)">
          <line id="Linha_643" data-name="Linha 643" y1="99.99" x2="94.752" transform="translate(81.928 89.285)" fill="none" stroke="#bc1751" stroke-width="3.6"/>
          <line id="Linha_644" data-name="Linha 644" y1="99.99" x2="94.752" transform="translate(70.13 76.872)" fill="none" stroke="#bc1751" stroke-width="3.6"/>
          <line id="Linha_645" data-name="Linha 645" y1="99.99" x2="94.729" transform="translate(58.719 64.549)" fill="none" stroke="#bc1751" stroke-width="3.6"/>
          <line id="Linha_646" data-name="Linha 646" y1="99.99" x2="94.752" transform="translate(47.786 52.318)" fill="none" stroke="#bc1751" stroke-width="3.6"/>
        </g>
        <g id="Grupo_290" data-name="Grupo 290" clip-path="url(#clip-path)">
          <line id="Linha_647" data-name="Linha 647" y1="99.99" x2="94.752" transform="translate(-11.821 89.285)" fill="none" stroke="#bc1751" stroke-width="3.6"/>
          <line id="Linha_648" data-name="Linha 648" y1="99.99" x2="94.752" transform="translate(-23.642 76.872)" fill="none" stroke="#bc1751" stroke-width="3.6"/>
          <line id="Linha_649" data-name="Linha 649" y1="99.99" x2="94.752" transform="translate(-35.054 64.549)" fill="none" stroke="#bc1751" stroke-width="3.6"/>
          <line id="Linha_650" data-name="Linha 650" y1="99.99" x2="94.752" transform="translate(-45.964 52.318)" fill="none" stroke="#bc1751" stroke-width="3.6"/>
        </g>
        <g id="Grupo_291" data-name="Grupo 291" clip-path="url(#clip-path)">
          <line id="Linha_651" data-name="Linha 651" y1="99.99" x2="94.729" transform="translate(94.319 2.847)" fill="none" stroke="#bc1751" stroke-width="3.6"/>
          <line id="Linha_652" data-name="Linha 652" y1="99.99" x2="94.752" transform="translate(81.928 -9.657)" fill="none" stroke="#bc1751" stroke-width="3.6"/>
          <line id="Linha_653" data-name="Linha 653" y1="99.99" x2="94.752" transform="translate(70.13 -22.071)" fill="none" stroke="#bc1751" stroke-width="3.6"/>
          <line id="Linha_654" data-name="Linha 654" y1="99.99" x2="94.729" transform="translate(58.719 -34.393)" fill="none" stroke="#bc1751" stroke-width="3.6"/>
          <line id="Linha_655" data-name="Linha 655" y1="99.99" x2="94.752" transform="translate(47.786 -46.624)" fill="none" stroke="#bc1751" stroke-width="3.6"/>
        </g>
        <g id="Grupo_292" data-name="Grupo 292" clip-path="url(#clip-path)">
          <line id="Linha_656" data-name="Linha 656" y1="99.99" x2="94.752" transform="translate(0.547 2.847)" fill="none" stroke="#bc1751" stroke-width="3.6"/>
          <line id="Linha_657" data-name="Linha 657" y1="99.99" x2="94.752" transform="translate(-11.821 -9.657)" fill="none" stroke="#bc1751" stroke-width="3.6"/>
          <line id="Linha_658" data-name="Linha 658" y1="99.99" x2="94.752" transform="translate(-23.642 -22.071)" fill="none" stroke="#bc1751" stroke-width="3.6"/>
          <line id="Linha_659" data-name="Linha 659" y1="99.99" x2="94.752" transform="translate(-35.054 -34.393)" fill="none" stroke="#bc1751" stroke-width="3.6"/>
          <line id="Linha_660" data-name="Linha 660" y1="99.99" x2="94.752" transform="translate(-45.964 -46.624)" fill="none" stroke="#bc1751" stroke-width="3.6"/>
        </g>
        <g id="Grupo_293" data-name="Grupo 293" clip-path="url(#clip-path)">
          <line id="Linha_661" data-name="Linha 661" y1="99.99" x2="94.752" transform="translate(-93.203 2.847)" fill="none" stroke="#bc1751" stroke-width="3.6"/>
        </g>
        <g id="Grupo_294" data-name="Grupo 294" clip-path="url(#clip-path)">
          <line id="Linha_662" data-name="Linha 662" y1="99.99" x2="94.729" transform="translate(94.319 -96.095)" fill="none" stroke="#bc1751" stroke-width="3.6"/>
        </g>
        <g id="Grupo_295" data-name="Grupo 295" clip-path="url(#clip-path)">
          <line id="Linha_663" data-name="Linha 663" y1="99.99" x2="94.752" transform="translate(0.547 -96.095)" fill="none" stroke="#bc1751" stroke-width="3.6"/>
        </g>
        <g id="Grupo_296" data-name="Grupo 296" clip-path="url(#clip-path)">
          <line id="Linha_664" data-name="Linha 664" y1="99.99" x2="94.752" transform="translate(-93.203 -96.095)" fill="none" stroke="#bc1751" stroke-width="3.6"/>
        </g>
      </g>
    </g>
    <g id="Grupo_354" data-name="Grupo 354" transform="translate(103.789 454.956)">
      <g id="Grupo_307" data-name="Grupo 307">
        <g id="Grupo_299" data-name="Grupo 299" clip-path="url(#clip-path)">
          <line id="Linha_665" data-name="Linha 665" y1="99.99" x2="94.752" transform="translate(81.928 89.285)" fill="none" stroke="#bc1751" stroke-width="3.6"/>
          <line id="Linha_666" data-name="Linha 666" y1="99.99" x2="94.752" transform="translate(70.13 76.872)" fill="none" stroke="#bc1751" stroke-width="3.6"/>
          <line id="Linha_667" data-name="Linha 667" y1="99.99" x2="94.729" transform="translate(58.719 64.549)" fill="none" stroke="#bc1751" stroke-width="3.6"/>
          <line id="Linha_668" data-name="Linha 668" y1="99.99" x2="94.752" transform="translate(47.786 52.318)" fill="none" stroke="#bc1751" stroke-width="3.6"/>
        </g>
        <g id="Grupo_300" data-name="Grupo 300" clip-path="url(#clip-path)">
          <line id="Linha_669" data-name="Linha 669" y1="99.99" x2="94.752" transform="translate(-11.821 89.285)" fill="none" stroke="#bc1751" stroke-width="3.6"/>
          <line id="Linha_670" data-name="Linha 670" y1="99.99" x2="94.752" transform="translate(-23.642 76.872)" fill="none" stroke="#bc1751" stroke-width="3.6"/>
          <line id="Linha_671" data-name="Linha 671" y1="99.99" x2="94.752" transform="translate(-35.054 64.549)" fill="none" stroke="#bc1751" stroke-width="3.6"/>
          <line id="Linha_672" data-name="Linha 672" y1="99.99" x2="94.752" transform="translate(-45.964 52.318)" fill="none" stroke="#bc1751" stroke-width="3.6"/>
        </g>
        <g id="Grupo_301" data-name="Grupo 301" clip-path="url(#clip-path)">
          <line id="Linha_673" data-name="Linha 673" y1="99.99" x2="94.729" transform="translate(94.319 2.847)" fill="none" stroke="#bc1751" stroke-width="3.6"/>
          <line id="Linha_674" data-name="Linha 674" y1="99.99" x2="94.752" transform="translate(81.928 -9.657)" fill="none" stroke="#bc1751" stroke-width="3.6"/>
          <line id="Linha_675" data-name="Linha 675" y1="99.99" x2="94.752" transform="translate(70.13 -22.071)" fill="none" stroke="#bc1751" stroke-width="3.6"/>
          <line id="Linha_676" data-name="Linha 676" y1="99.99" x2="94.729" transform="translate(58.719 -34.393)" fill="none" stroke="#bc1751" stroke-width="3.6"/>
          <line id="Linha_677" data-name="Linha 677" y1="99.99" x2="94.752" transform="translate(47.786 -46.624)" fill="none" stroke="#bc1751" stroke-width="3.6"/>
        </g>
        <g id="Grupo_302" data-name="Grupo 302" clip-path="url(#clip-path)">
          <line id="Linha_678" data-name="Linha 678" y1="99.99" x2="94.752" transform="translate(0.547 2.847)" fill="none" stroke="#bc1751" stroke-width="3.6"/>
          <line id="Linha_679" data-name="Linha 679" y1="99.99" x2="94.752" transform="translate(-11.821 -9.657)" fill="none" stroke="#bc1751" stroke-width="3.6"/>
          <line id="Linha_680" data-name="Linha 680" y1="99.99" x2="94.752" transform="translate(-23.642 -22.071)" fill="none" stroke="#bc1751" stroke-width="3.6"/>
          <line id="Linha_681" data-name="Linha 681" y1="99.99" x2="94.752" transform="translate(-35.054 -34.393)" fill="none" stroke="#bc1751" stroke-width="3.6"/>
          <line id="Linha_682" data-name="Linha 682" y1="99.99" x2="94.752" transform="translate(-45.964 -46.624)" fill="none" stroke="#bc1751" stroke-width="3.6"/>
        </g>
        <g id="Grupo_303" data-name="Grupo 303" clip-path="url(#clip-path)">
          <line id="Linha_683" data-name="Linha 683" y1="99.99" x2="94.752" transform="translate(-93.203 2.847)" fill="none" stroke="#bc1751" stroke-width="3.6"/>
        </g>
        <g id="Grupo_304" data-name="Grupo 304" clip-path="url(#clip-path)">
          <line id="Linha_684" data-name="Linha 684" y1="99.99" x2="94.729" transform="translate(94.319 -96.095)" fill="none" stroke="#bc1751" stroke-width="3.6"/>
        </g>
        <g id="Grupo_305" data-name="Grupo 305" clip-path="url(#clip-path)">
          <line id="Linha_685" data-name="Linha 685" y1="99.99" x2="94.752" transform="translate(0.547 -96.095)" fill="none" stroke="#bc1751" stroke-width="3.6"/>
        </g>
        <g id="Grupo_306" data-name="Grupo 306" clip-path="url(#clip-path)">
          <line id="Linha_686" data-name="Linha 686" y1="99.99" x2="94.752" transform="translate(-93.203 -96.095)" fill="none" stroke="#bc1751" stroke-width="3.6"/>
        </g>
      </g>
    </g>
    <path id="Caminho_1552" data-name="Caminho 1552" d="M957.763,926.1,924.6,961.085h6.628l29.838-31.5Z" transform="translate(-608.86 -371.085)" fill="#db3f14"/>
    <path id="Caminho_1553" data-name="Caminho 1553" d="M863.13,871.1,818.1,918.612h6.651l41.7-44Z" transform="translate(-526.618 -328.612)" fill="#db3f14"/>
    <path id="Caminho_1554" data-name="Caminho 1554" d="M182.86,708.8,102.8,793.279h6.628l76.735-80.972Z" transform="translate(-60.771 -203.279)" fill="#bc1751"/>
    <g id="Grupo_355" data-name="Grupo 355" transform="translate(257.151 453.072)">
      <path id="Caminho_1490" data-name="Caminho 1490" d="M654.2,591.69l3.3,3.485,94.752-99.99-3.3-3.485Z" transform="translate(-654.2 -491.7)" fill="#db3f14"/>
    </g>
    <g id="Grupo_356" data-name="Grupo 356" transform="translate(104.788 457.803)">
      <line id="Linha_687" data-name="Linha 687" y1="99.99" x2="94.752" fill="none" stroke="#bc1751" stroke-width="3.6"/>
    </g>
    <g id="Grupo_357" data-name="Grupo 357" transform="translate(18.569 456.448)">
      <path id="Caminho_1491" data-name="Caminho 1491" d="M56.081,491.7-.2,551.079v7.015l59.584-62.91Z" transform="translate(0.2 -491.7)" fill="#bc1751"/>
    </g>
    <g id="Grupo_358" data-name="Grupo 358" transform="translate(27.338 345.01)">
      <path id="Caminho_1492" data-name="Caminho 1492" d="M188.2,102.29l3.325,3.485,94.729-99.99-3.3-3.485Z" transform="translate(-154.058 -1.708)" fill="#bc1751"/>
      <path id="Caminho_1493" data-name="Caminho 1493" d="M139.7,91.377,226.573-.3h-6.628L136.4,87.869Z" transform="translate(-114.056 0.3)" fill="#bc1751"/>
      <path id="Caminho_1494" data-name="Caminho 1494" d="M89.525,79.032,164.712-.3h-6.628L86.2,75.547Z" transform="translate(-75.29 0.3)" fill="#bc1751"/>
      <path id="Caminho_1495" data-name="Caminho 1495" d="M41.6,66.823,105.2-.3H98.567L38.3,63.316Z" transform="translate(-38.3 0.3)" fill="#bc1751"/>
    </g>
    <rect id="Retângulo_2017" data-name="Retângulo 2017" width="105" height="245" transform="translate(16 345)" fill="#fff"/>
    <g id="Grupo_361" data-name="Grupo 361" transform="translate(18.569 345)">
      <path id="Caminho_1505" data-name="Caminho 1505" d="M56.081,57.2-.2,114.823v6.805L59.384,60.6Z" transform="translate(0.2 -44.103)" fill="#e97f05"/>
      <path id="Caminho_1506" data-name="Caminho 1506" d="M43.714,2.3-.2,48.628v6.992L47.016,5.785Z" transform="translate(0.2 -1.708)" fill="#e97f05"/>
      <path id="Caminho_1507" data-name="Caminho 1507" d="M20.686-.3-.2,21.748v7.015L27.314-.3Z" transform="translate(0.2 0.3)" fill="#e97f05"/>
      <path id="Caminho_1508" data-name="Caminho 1508" d="M-.2-.3V4.392L4.219-.3Z" transform="translate(0.2 0.3)" fill="#e97f05"/>
    </g>
    <rect id="Retângulo_2018" data-name="Retângulo 2018" width="56.418" height="98.942" transform="translate(18.569 357.014)" fill="none"/>
    <g id="Grupo_362" data-name="Grupo 362" transform="translate(42.029 505.521)">
      <path id="Caminho_1509" data-name="Caminho 1509" d="M451.53,871.1,406.5,918.612h6.628l41.7-44Z" transform="translate(-337.327 -834.133)" fill="#bc1751"/>
      <path id="Caminho_1510" data-name="Caminho 1510" d="M359.86,816.6,303.1,876.526h6.628l53.457-56.418Z" transform="translate(-257.478 -792.047)" fill="#bc1751"/>
      <path id="Caminho_1511" data-name="Caminho 1511" d="M270.144,762.5,201.7,834.748h6.628l65.142-68.74Z" transform="translate(-179.174 -750.269)" fill="#bc1751"/>
      <path id="Caminho_1512" data-name="Caminho 1512" d="M182.86,708.8,102.8,793.279h6.628l76.735-80.972Z" transform="translate(-102.8 -708.8)" fill="#bc1751"/>
    </g>
    <g id="Grupo_364" data-name="Grupo 364" transform="translate(18.569 407.097)">
      <path id="Caminho_1518" data-name="Caminho 1518" d="M56.081,491.7-.2,551.079v7.015l59.584-62.91Z" transform="translate(0.2 -442.206)" fill="#e97f05"/>
      <path id="Caminho_1519" data-name="Caminho 1519" d="M43.714,436.7-.2,483.028v7.015l47.216-49.858Z" transform="translate(0.2 -399.733)" fill="#e97f05"/>
      <path id="Caminho_1520" data-name="Caminho 1520" d="M31.893,382.2-.2,416.092v6.992l35.418-37.377Z" transform="translate(0.2 -357.647)" fill="#e97f05"/>
      <path id="Caminho_1521" data-name="Caminho 1521" d="M29.36,328.1-.2,358.008v9.616l34.28-34.716Z" transform="translate(0.2 -326.558)" fill="#e97f05"/>
      <path id="Caminho_1522" data-name="Caminho 1522" d="M9.548,274.4-.2,284.7v7.015l13.074-13.8Z" transform="translate(0.2 -276.4)" fill="#e97f05"/>
    </g>
    <g id="Grupo_365" data-name="Grupo 365" transform="translate(138.669 346.861)">
      <line id="Linha_688" data-name="Linha 688" y1="99.99" x2="94.752" fill="none" stroke="#bc1751" stroke-width="3.6"/>
    </g>
    <rect id="Retângulo_2019" data-name="Retângulo 2019" width="56.418" height="98.942" transform="translate(18.569 454.956)" fill="none"/>
    <g id="Grupo_367" data-name="Grupo 367" transform="translate(42.029 565.993)">
      <path id="Caminho_1524" data-name="Caminho 1524" d="M212.861,1028,201.7,1039.776h6.628l7.835-8.291Z" transform="translate(-179.174 -1015.769)" fill="#bc1751"/>
      <path id="Caminho_1525" data-name="Caminho 1525" d="M125.554,974.3,102.8,998.307h6.628l19.451-20.5Z" transform="translate(-102.8 -974.3)" fill="#bc1751"/>
    </g>
    <path id="Caminho_1555" data-name="Caminho 1555" d="M170.929,757.1,101.3,830.578h6.628l66.3-69.97Z" transform="translate(-59.612 -240.578)" fill="#bc1751"/>
    <path id="Caminho_1556" data-name="Caminho 1556" d="M80.157,702.2-.2,787.021v1.162H5.312l78.17-82.5Z" transform="translate(18.769 -198.183)" fill="#e97f05"/>
    <path id="Caminho_1557" data-name="Caminho 1557" d="M68.358,647.7-.2,720.062v6.992l71.861-75.847Z" transform="translate(18.769 -156.096)" fill="#e97f05"/>
    <path id="Caminho_1558" data-name="Caminho 1558" d="M56.947,593.6-.2,653.913v6.992l60.45-63.821Z" transform="translate(18.769 -114.075)" fill="#e97f05"/>
    <g id="Grupo_368" data-name="Grupo 368" transform="translate(160.003 419.817)">
      <line id="Linha_689" data-name="Linha 689" y1="99.99" x2="94.752" fill="none" stroke="#bc1751" stroke-width="3.6"/>
    </g>
    <rect id="Retângulo_2021" data-name="Retângulo 2021" width="264.751" height="249.764" transform="translate(46.351 342.236)" fill="#e97f05"/>
    <g id="bdg" transform="translate(121.997 385.382)">
      <path id="Caminho_1559" data-name="Caminho 1559" d="M25.389,434H48.705l18.82,32.929L86.535,434h23.317c1.023,0,1.428.809,1.642,1.642l23.721,67.285c.4.809-.809,1.832-1.642,1.832H1.668a1.68,1.68,0,0,1-1.642-1.832l23.721-67.285c.4-.833.619-1.642,1.642-1.642Z" transform="translate(0 -330.741)" fill="#da3f14" fill-rule="evenodd"/>
      <path id="Caminho_1560" data-name="Caminho 1560" d="M169.379,0A35.874,35.874,0,0,0,133.5,35.879c0,35.879,35.879,78.943,35.879,78.943s35.879-43.064,35.879-78.943A35.874,35.874,0,0,0,169.379,0Zm0,57.863a21.984,21.984,0,1,1,21.984-21.984A21.978,21.978,0,0,1,169.379,57.863ZM155.484,35.879a13.907,13.907,0,1,0,13.895-13.895A13.9,13.9,0,0,0,155.484,35.879Z" transform="translate(-101.735)" fill="#da3f14"/>
    </g>
  </g>
</svg>
