<svg xmlns="http://www.w3.org/2000/svg" xmlns:xlink="http://www.w3.org/1999/xlink" width="368" height="375" viewBox="0 0 368 375">
  <defs>
    <filter id="Retângulo_2025" x="0" y="0" width="368" height="375" filterUnits="userSpaceOnUse">
      <feOffset dy="3" input="SourceAlpha"/>
      <feGaussianBlur stdDeviation="3" result="blur"/>
      <feFlood flood-opacity="0.161"/>
      <feComposite operator="in" in2="blur"/>
      <feComposite in="SourceGraphic"/>
    </filter>
    <clipPath id="clip-path">
      <rect id="Retângulo_1932" data-name="Retângulo 1932" width="93.749" height="98.942"/>
    </clipPath>
  </defs>
  <g id="Grupo_378" data-name="Grupo 378" transform="translate(-1165 -311)">
    <g transform="matrix(1, 0, 0, 1, 1165, 311)" filter="url(#Retângulo_2025)">
      <rect id="Retângulo_2025-2" data-name="Retângulo 2025" width="350" height="357" transform="translate(9 6)" fill="#e97f05"/>
    </g>
    <path id="Caminho_1561" data-name="Caminho 1561" d="M14.872,0H334.128A14.937,14.937,0,0,1,349,15V340.064a14.937,14.937,0,0,1-14.872,15H14.872A14.936,14.936,0,0,1,0,340.064V15A14.936,14.936,0,0,1,14.872,0Z" transform="translate(1175 317.084)" fill="#e97f05"/>
    <rect id="Retângulo_1926" data-name="Retângulo 1926" width="311.845" height="244.989" transform="translate(1211.304 345.01)" fill="#e87f05"/>
    <g id="Grupo_273" data-name="Grupo 273" transform="translate(1362.618 345.01)">
      <path id="Caminho_1437" data-name="Caminho 1437" d="M599.8,102.29l3.325,3.485,94.752-99.99L694.552,2.3Z" transform="translate(-565.658 -1.708)" fill="#bc1751"/>
      <path id="Caminho_1438" data-name="Caminho 1438" d="M551.325,91.377,638.173-.3h-6.628L548,87.869Z" transform="translate(-525.656 0.3)" fill="#bc1751"/>
      <path id="Caminho_1439" data-name="Caminho 1439" d="M501.2,79.032,576.389-.3h-6.628L497.9,75.547Z" transform="translate(-486.967 0.3)" fill="#bc1751"/>
      <path id="Caminho_1440" data-name="Caminho 1440" d="M453.225,66.823,516.818-.3H510.19L449.9,63.316Z" transform="translate(-449.9 0.3)" fill="#bc1751"/>
    </g>
    <g id="Grupo_274" data-name="Grupo 274" transform="translate(1490.533 345.01)">
      <path id="Caminho_1441" data-name="Caminho 1441" d="M1069.125,17.352,1085.844-.3h-6.628L1065.8,13.844Z" transform="translate(-1053.432 0.3)" fill="#bc1751"/>
      <path id="Caminho_1442" data-name="Caminho 1442" d="M1014.8,4.825,1019.677-.3h-6.651L1011.5,1.34Z" transform="translate(-1011.5 0.3)" fill="#bc1751"/>
    </g>
    <g id="Grupo_275" data-name="Grupo 275" transform="translate(1362.72 345.01)">
      <path id="Caminho_1443" data-name="Caminho 1443" d="M657.5,17.352,674.221-.3h-6.628L654.2,13.844Z" transform="translate(-641.809 0.3)" fill="#bc1751"/>
      <path id="Caminho_1444" data-name="Caminho 1444" d="M603.125,4.825,607.977-.3h-6.628L599.8,1.34Z" transform="translate(-599.8 0.3)" fill="#bc1751"/>
    </g>
    <rect id="Retângulo_1927" data-name="Retângulo 1927" width="93.749" height="12.003" transform="translate(1410.267 345.01)" fill="none"/>
    <g id="Grupo_276" data-name="Grupo 276" transform="translate(1362.618 406.986)">
      <path id="Caminho_1445" data-name="Caminho 1445" d="M599.8,536.69l3.325,3.485,94.752-99.99-3.325-3.485Z" transform="translate(-565.658 -399.733)" fill="#bc1751"/>
      <path id="Caminho_1446" data-name="Caminho 1446" d="M548,482.19l3.325,3.508,94.729-99.99-3.3-3.508Z" transform="translate(-525.656 -357.647)" fill="#bc1751"/>
      <path id="Caminho_1447" data-name="Caminho 1447" d="M497.9,428.09l3.3,3.508,94.752-99.99-3.3-3.508Z" transform="translate(-486.967 -315.869)" fill="#bc1751"/>
      <path id="Caminho_1448" data-name="Caminho 1448" d="M449.9,374.39l3.325,3.508,94.752-99.99-3.325-3.508Z" transform="translate(-449.9 -274.4)" fill="#bc1751"/>
    </g>
    <path id="Caminho_1449" data-name="Caminho 1449" d="M1069.125,427.349l16.9-17.857V402.5L1065.8,423.842Z" transform="translate(437.1 33.841)" fill="#bc1751"/>
    <path id="Caminho_1450" data-name="Caminho 1450" d="M1014.8,328.1l29.291-30.908V290.2L1011.5,324.616Z" transform="translate(479.033 120.659)" fill="#bc1751"/>
    <path id="Caminho_1451" data-name="Caminho 1451" d="M962.925,231.382l41.089-43.39V181L959.6,227.875Z" transform="translate(519.112 205.094)" fill="#bc1751"/>
    <path id="Caminho_1452" data-name="Caminho 1452" d="M912.825,136.408l52.5-55.416V74L909.5,132.924Z" transform="translate(557.8 287.934)" fill="#bc1751"/>
    <path id="Caminho_1453" data-name="Caminho 1453" d="M864.9,66.823,928.336-.141V-.3h-6.469L861.6,63.316Z" transform="translate(594.79 345.31)" fill="#bc1751"/>
    <g id="Grupo_277" data-name="Grupo 277" transform="translate(1362.618 345.01)">
      <path id="Caminho_1454" data-name="Caminho 1454" d="M654.2,157.19l3.3,3.508,94.752-99.99-3.3-3.508Z" transform="translate(-607.667 -44.103)" fill="#bc1751"/>
      <path id="Caminho_1455" data-name="Caminho 1455" d="M599.8,102.29l3.325,3.485,94.752-99.99L694.552,2.3Z" transform="translate(-565.658 -1.708)" fill="#bc1751"/>
      <path id="Caminho_1456" data-name="Caminho 1456" d="M551.325,91.377,638.173-.3h-6.628L548,87.869Z" transform="translate(-525.656 0.3)" fill="#bc1751"/>
      <path id="Caminho_1457" data-name="Caminho 1457" d="M501.2,79.032,576.389-.3h-6.628L497.9,75.547Z" transform="translate(-486.967 0.3)" fill="#bc1751"/>
      <path id="Caminho_1458" data-name="Caminho 1458" d="M453.225,66.823,516.818-.3H510.19L449.9,63.316Z" transform="translate(-449.9 0.3)" fill="#bc1751"/>
    </g>
    <g id="Grupo_278" data-name="Grupo 278" transform="translate(1261.757 359.861)">
      <line id="Linha_636" data-name="Linha 636" y1="99.99" x2="94.752" fill="none" stroke="#bc1751" stroke-width="3.6"/>
    </g>
    <rect id="Retângulo_1928" data-name="Retângulo 1928" width="93.749" height="98.942" transform="translate(1410.267 357.014)" fill="none"/>
    <g id="Grupo_279" data-name="Grupo 279" transform="translate(1471.081 535.062)">
      <path id="Caminho_1459" data-name="Caminho 1459" d="M1132.746,1049.8l-6.446,6.81h6.446Z" transform="translate(-1080.701 -1001.673)" fill="#bc1751"/>
      <path id="Caminho_1460" data-name="Caminho 1460" d="M1054.442,942.8,1024.9,973.981h6.628l22.913-24.189Z" transform="translate(-1002.397 -919.044)" fill="#bc1751"/>
      <path id="Caminho_1461" data-name="Caminho 1461" d="M978.145,838.5,926.1,893.438h6.628l45.417-47.922Z" transform="translate(-926.1 -838.5)" fill="#bc1751"/>
    </g>
    <path id="Caminho_1462" data-name="Caminho 1462" d="M1069.125,861.75l16.9-17.857V836.9L1065.8,858.265Z" transform="translate(437.1 -302.202)" fill="#bc1751"/>
    <path id="Caminho_1463" data-name="Caminho 1463" d="M1014.8,762.5l29.291-30.908V724.6L1011.5,759.016Z" transform="translate(479.033 -215.274)" fill="#bc1751"/>
    <path id="Caminho_1464" data-name="Caminho 1464" d="M962.925,665.782l41.089-43.39V615.4L959.6,662.275Z" transform="translate(519.112 -130.87)" fill="#bc1751"/>
    <path id="Caminho_1465" data-name="Caminho 1465" d="M912.825,570.831l52.5-55.439V508.4L909.5,567.324Z" transform="translate(557.8 -48.155)" fill="#bc1751"/>
    <path id="Caminho_1466" data-name="Caminho 1466" d="M864.9,478.056l63.433-66.964V404.1L861.6,474.549Z" transform="translate(594.79 32.484)" fill="#bc1751"/>
    <path id="Caminho_1467" data-name="Caminho 1467" d="M654.2,591.69l3.3,3.485,94.752-99.99-3.3-3.485Z" transform="translate(754.951 -35.628)" fill="#bc1751"/>
    <path id="Caminho_1468" data-name="Caminho 1468" d="M599.8,536.69l3.325,3.485,94.752-99.99-3.325-3.485Z" transform="translate(796.961 7.147)" fill="#bc1751"/>
    <line id="Linha_637" data-name="Linha 637" y1="99.99" x2="94.752" transform="translate(1365.892 433.277)" fill="none" stroke="#bc1751" stroke-width="3.6"/>
    <line id="Linha_638" data-name="Linha 638" y1="99.99" x2="94.729" transform="translate(1348.807 421.039)" fill="none" stroke="#bc1751" stroke-width="3.6"/>
    <line id="Linha_639" data-name="Linha 639" y1="99.99" x2="94.752" transform="translate(1332.453 408.892)" fill="none" stroke="#bc1751" stroke-width="3.6"/>
    <g id="Grupo_280" data-name="Grupo 280" transform="translate(1261.757 457.803)">
      <line id="Linha_640" data-name="Linha 640" y1="99.99" x2="94.752" fill="none" stroke="#bc1751" stroke-width="3.6"/>
    </g>
    <path id="Caminho_1469" data-name="Caminho 1469" d="M1069.125,427.349l16.9-17.857V402.5L1065.8,423.842Z" transform="translate(437.1 33.841)" fill="#bc1751"/>
    <g id="Grupo_281" data-name="Grupo 281" transform="translate(1409.151 358.107)">
      <path id="Caminho_1470" data-name="Caminho 1470" d="M654.2,157.19l3.3,3.508,94.752-99.99-3.3-3.508Z" transform="translate(-654.2 -57.2)" fill="#bc1751"/>
    </g>
    <g id="Grupo_282" data-name="Grupo 282" transform="translate(1261.757 359.861)">
      <line id="Linha_641" data-name="Linha 641" y1="99.99" x2="94.752" fill="none" stroke="#bc1751" stroke-width="3.6"/>
    </g>
    <rect id="Retângulo_1929" data-name="Retângulo 1929" width="93.749" height="98.942" transform="translate(1410.267 454.956)" fill="none"/>
    <g id="Grupo_283" data-name="Grupo 283" transform="translate(1377.332 505.521)">
      <path id="Caminho_1471" data-name="Caminho 1471" d="M957.763,926.1,924.6,961.085h6.628l29.838-31.5Z" transform="translate(-831.192 -876.606)" fill="#bc1751"/>
      <path id="Caminho_1472" data-name="Caminho 1472" d="M863.13,871.1,818.1,918.612h6.651l41.7-44Z" transform="translate(-748.95 -834.133)" fill="#bc1751"/>
      <path id="Caminho_1473" data-name="Caminho 1473" d="M771.483,816.6,714.7,876.526h6.628l53.457-56.418Z" transform="translate(-669.101 -792.047)" fill="#bc1751"/>
      <path id="Caminho_1474" data-name="Caminho 1474" d="M681.767,762.5,613.3,834.748h6.628l65.142-68.74Z" transform="translate(-590.797 -750.269)" fill="#bc1751"/>
      <path id="Caminho_1475" data-name="Caminho 1475" d="M594.538,708.8,514.5,793.279h6.628l76.735-80.972Z" transform="translate(-514.5 -708.8)" fill="#bc1751"/>
    </g>
    <g id="Grupo_284" data-name="Grupo 284" transform="translate(1409.151 456.072)">
      <path id="Caminho_1476" data-name="Caminho 1476" d="M654.2,591.69l3.3,3.485,94.752-99.99-3.3-3.485Z" transform="translate(-654.2 -491.7)" fill="#bc1751"/>
    </g>
    <g id="Grupo_285" data-name="Grupo 285" transform="translate(1261.757 457.803)">
      <line id="Linha_642" data-name="Linha 642" y1="99.99" x2="94.752" fill="none" stroke="#bc1751" stroke-width="3.6"/>
    </g>
    <rect id="Retângulo_1930" data-name="Retângulo 1930" width="93.749" height="36.101" transform="translate(1410.267 553.899)" fill="none"/>
    <g id="Grupo_286" data-name="Grupo 286" transform="translate(1362.618 345.01)">
      <path id="Caminho_1477" data-name="Caminho 1477" d="M599.8,102.29l3.325,3.485,94.752-99.99L694.552,2.3Z" transform="translate(-565.658 -1.708)" fill="#bc1751"/>
      <path id="Caminho_1478" data-name="Caminho 1478" d="M551.325,91.377,638.173-.3h-6.628L548,87.869Z" transform="translate(-525.656 0.3)" fill="#bc1751"/>
      <path id="Caminho_1479" data-name="Caminho 1479" d="M501.2,79.032,576.389-.3h-6.628L497.9,75.547Z" transform="translate(-486.967 0.3)" fill="#bc1751"/>
      <path id="Caminho_1480" data-name="Caminho 1480" d="M453.225,66.823,516.818-.3H510.19L449.9,63.316Z" transform="translate(-449.9 0.3)" fill="#bc1751"/>
    </g>
    <g id="Grupo_287" data-name="Grupo 287" transform="translate(1185.338 345.01)">
      <path id="Caminho_1481" data-name="Caminho 1481" d="M188.2,102.29l3.325,3.485,94.729-99.99-3.3-3.485Z" transform="translate(-154.058 -1.708)" fill="#bc1751"/>
      <path id="Caminho_1482" data-name="Caminho 1482" d="M139.7,91.377,226.573-.3h-6.628L136.4,87.869Z" transform="translate(-114.056 0.3)" fill="#bc1751"/>
      <path id="Caminho_1483" data-name="Caminho 1483" d="M89.525,79.032,164.712-.3h-6.628L86.2,75.547Z" transform="translate(-75.29 0.3)" fill="#bc1751"/>
      <path id="Caminho_1484" data-name="Caminho 1484" d="M41.6,66.823,105.2-.3H98.567L38.3,63.316Z" transform="translate(-38.3 0.3)" fill="#bc1751"/>
    </g>
    <g id="Grupo_288" data-name="Grupo 288" transform="translate(1362.72 345.01)">
      <path id="Caminho_1485" data-name="Caminho 1485" d="M657.5,17.352,674.221-.3h-6.628L654.2,13.844Z" transform="translate(-641.809 0.3)" fill="#bc1751"/>
      <path id="Caminho_1486" data-name="Caminho 1486" d="M603.125,4.825,607.977-.3h-6.628L599.8,1.34Z" transform="translate(-599.8 0.3)" fill="#bc1751"/>
    </g>
    <rect id="Retângulo_1931" data-name="Retângulo 1931" width="93.749" height="12.003" transform="translate(1260.773 345.01)" fill="none"/>
    <g id="Grupo_298" data-name="Grupo 298" transform="translate(1260.773 357.014)">
      <g id="Grupo_297" data-name="Grupo 297">
        <g id="Grupo_289" data-name="Grupo 289" clip-path="url(#clip-path)">
          <line id="Linha_643" data-name="Linha 643" y1="99.99" x2="94.752" transform="translate(81.928 89.285)" fill="none" stroke="#bc1751" stroke-width="3.6"/>
          <line id="Linha_644" data-name="Linha 644" y1="99.99" x2="94.752" transform="translate(70.13 76.872)" fill="none" stroke="#bc1751" stroke-width="3.6"/>
          <line id="Linha_645" data-name="Linha 645" y1="99.99" x2="94.729" transform="translate(58.719 64.549)" fill="none" stroke="#bc1751" stroke-width="3.6"/>
          <line id="Linha_646" data-name="Linha 646" y1="99.99" x2="94.752" transform="translate(47.786 52.318)" fill="none" stroke="#bc1751" stroke-width="3.6"/>
        </g>
        <g id="Grupo_290" data-name="Grupo 290" clip-path="url(#clip-path)">
          <line id="Linha_647" data-name="Linha 647" y1="99.99" x2="94.752" transform="translate(-11.821 89.285)" fill="none" stroke="#bc1751" stroke-width="3.6"/>
          <line id="Linha_648" data-name="Linha 648" y1="99.99" x2="94.752" transform="translate(-23.642 76.872)" fill="none" stroke="#bc1751" stroke-width="3.6"/>
          <line id="Linha_649" data-name="Linha 649" y1="99.99" x2="94.752" transform="translate(-35.054 64.549)" fill="none" stroke="#bc1751" stroke-width="3.6"/>
          <line id="Linha_650" data-name="Linha 650" y1="99.99" x2="94.752" transform="translate(-45.964 52.318)" fill="none" stroke="#bc1751" stroke-width="3.6"/>
        </g>
        <g id="Grupo_291" data-name="Grupo 291" clip-path="url(#clip-path)">
          <line id="Linha_651" data-name="Linha 651" y1="99.99" x2="94.729" transform="translate(94.319 2.847)" fill="none" stroke="#bc1751" stroke-width="3.6"/>
          <line id="Linha_652" data-name="Linha 652" y1="99.99" x2="94.752" transform="translate(81.928 -9.657)" fill="none" stroke="#bc1751" stroke-width="3.6"/>
          <line id="Linha_653" data-name="Linha 653" y1="99.99" x2="94.752" transform="translate(70.13 -22.071)" fill="none" stroke="#bc1751" stroke-width="3.6"/>
          <line id="Linha_654" data-name="Linha 654" y1="99.99" x2="94.729" transform="translate(58.719 -34.393)" fill="none" stroke="#bc1751" stroke-width="3.6"/>
          <line id="Linha_655" data-name="Linha 655" y1="99.99" x2="94.752" transform="translate(47.786 -46.624)" fill="none" stroke="#bc1751" stroke-width="3.6"/>
        </g>
        <g id="Grupo_292" data-name="Grupo 292" clip-path="url(#clip-path)">
          <line id="Linha_656" data-name="Linha 656" y1="99.99" x2="94.752" transform="translate(0.547 2.847)" fill="none" stroke="#bc1751" stroke-width="3.6"/>
          <line id="Linha_657" data-name="Linha 657" y1="99.99" x2="94.752" transform="translate(-11.821 -9.657)" fill="none" stroke="#bc1751" stroke-width="3.6"/>
          <line id="Linha_658" data-name="Linha 658" y1="99.99" x2="94.752" transform="translate(-23.642 -22.071)" fill="none" stroke="#bc1751" stroke-width="3.6"/>
          <line id="Linha_659" data-name="Linha 659" y1="99.99" x2="94.752" transform="translate(-35.054 -34.393)" fill="none" stroke="#bc1751" stroke-width="3.6"/>
          <line id="Linha_660" data-name="Linha 660" y1="99.99" x2="94.752" transform="translate(-45.964 -46.624)" fill="none" stroke="#bc1751" stroke-width="3.6"/>
        </g>
        <g id="Grupo_293" data-name="Grupo 293" clip-path="url(#clip-path)">
          <line id="Linha_661" data-name="Linha 661" y1="99.99" x2="94.752" transform="translate(-93.203 2.847)" fill="none" stroke="#bc1751" stroke-width="3.6"/>
        </g>
        <g id="Grupo_294" data-name="Grupo 294" clip-path="url(#clip-path)">
          <line id="Linha_662" data-name="Linha 662" y1="99.99" x2="94.729" transform="translate(94.319 -96.095)" fill="none" stroke="#bc1751" stroke-width="3.6"/>
        </g>
        <g id="Grupo_295" data-name="Grupo 295" clip-path="url(#clip-path)">
          <line id="Linha_663" data-name="Linha 663" y1="99.99" x2="94.752" transform="translate(0.547 -96.095)" fill="none" stroke="#bc1751" stroke-width="3.6"/>
        </g>
        <g id="Grupo_296" data-name="Grupo 296" clip-path="url(#clip-path)">
          <line id="Linha_664" data-name="Linha 664" y1="99.99" x2="94.752" transform="translate(-93.203 -96.095)" fill="none" stroke="#bc1751" stroke-width="3.6"/>
        </g>
      </g>
    </g>
    <g id="Grupo_308" data-name="Grupo 308" transform="translate(1260.773 454.956)">
      <g id="Grupo_307" data-name="Grupo 307">
        <g id="Grupo_299" data-name="Grupo 299" clip-path="url(#clip-path)">
          <line id="Linha_665" data-name="Linha 665" y1="99.99" x2="94.752" transform="translate(81.928 89.285)" fill="none" stroke="#bc1751" stroke-width="3.6"/>
          <line id="Linha_666" data-name="Linha 666" y1="99.99" x2="94.752" transform="translate(70.13 76.872)" fill="none" stroke="#bc1751" stroke-width="3.6"/>
          <line id="Linha_667" data-name="Linha 667" y1="99.99" x2="94.729" transform="translate(58.719 64.549)" fill="none" stroke="#bc1751" stroke-width="3.6"/>
          <line id="Linha_668" data-name="Linha 668" y1="99.99" x2="94.752" transform="translate(47.786 52.318)" fill="none" stroke="#bc1751" stroke-width="3.6"/>
        </g>
        <g id="Grupo_300" data-name="Grupo 300" clip-path="url(#clip-path)">
          <line id="Linha_669" data-name="Linha 669" y1="99.99" x2="94.752" transform="translate(-11.821 89.285)" fill="none" stroke="#bc1751" stroke-width="3.6"/>
          <line id="Linha_670" data-name="Linha 670" y1="99.99" x2="94.752" transform="translate(-23.642 76.872)" fill="none" stroke="#bc1751" stroke-width="3.6"/>
          <line id="Linha_671" data-name="Linha 671" y1="99.99" x2="94.752" transform="translate(-35.054 64.549)" fill="none" stroke="#bc1751" stroke-width="3.6"/>
          <line id="Linha_672" data-name="Linha 672" y1="99.99" x2="94.752" transform="translate(-45.964 52.318)" fill="none" stroke="#bc1751" stroke-width="3.6"/>
        </g>
        <g id="Grupo_301" data-name="Grupo 301" clip-path="url(#clip-path)">
          <line id="Linha_673" data-name="Linha 673" y1="99.99" x2="94.729" transform="translate(94.319 2.847)" fill="none" stroke="#bc1751" stroke-width="3.6"/>
          <line id="Linha_674" data-name="Linha 674" y1="99.99" x2="94.752" transform="translate(81.928 -9.657)" fill="none" stroke="#bc1751" stroke-width="3.6"/>
          <line id="Linha_675" data-name="Linha 675" y1="99.99" x2="94.752" transform="translate(70.13 -22.071)" fill="none" stroke="#bc1751" stroke-width="3.6"/>
          <line id="Linha_676" data-name="Linha 676" y1="99.99" x2="94.729" transform="translate(58.719 -34.393)" fill="none" stroke="#bc1751" stroke-width="3.6"/>
          <line id="Linha_677" data-name="Linha 677" y1="99.99" x2="94.752" transform="translate(47.786 -46.624)" fill="none" stroke="#bc1751" stroke-width="3.6"/>
        </g>
        <g id="Grupo_302" data-name="Grupo 302" clip-path="url(#clip-path)">
          <line id="Linha_678" data-name="Linha 678" y1="99.99" x2="94.752" transform="translate(0.547 2.847)" fill="none" stroke="#bc1751" stroke-width="3.6"/>
          <line id="Linha_679" data-name="Linha 679" y1="99.99" x2="94.752" transform="translate(-11.821 -9.657)" fill="none" stroke="#bc1751" stroke-width="3.6"/>
          <line id="Linha_680" data-name="Linha 680" y1="99.99" x2="94.752" transform="translate(-23.642 -22.071)" fill="none" stroke="#bc1751" stroke-width="3.6"/>
          <line id="Linha_681" data-name="Linha 681" y1="99.99" x2="94.752" transform="translate(-35.054 -34.393)" fill="none" stroke="#bc1751" stroke-width="3.6"/>
          <line id="Linha_682" data-name="Linha 682" y1="99.99" x2="94.752" transform="translate(-45.964 -46.624)" fill="none" stroke="#bc1751" stroke-width="3.6"/>
        </g>
        <g id="Grupo_303" data-name="Grupo 303" clip-path="url(#clip-path)">
          <line id="Linha_683" data-name="Linha 683" y1="99.99" x2="94.752" transform="translate(-93.203 2.847)" fill="none" stroke="#bc1751" stroke-width="3.6"/>
        </g>
        <g id="Grupo_304" data-name="Grupo 304" clip-path="url(#clip-path)">
          <line id="Linha_684" data-name="Linha 684" y1="99.99" x2="94.729" transform="translate(94.319 -96.095)" fill="none" stroke="#bc1751" stroke-width="3.6"/>
        </g>
        <g id="Grupo_305" data-name="Grupo 305" clip-path="url(#clip-path)">
          <line id="Linha_685" data-name="Linha 685" y1="99.99" x2="94.752" transform="translate(0.547 -96.095)" fill="none" stroke="#bc1751" stroke-width="3.6"/>
        </g>
        <g id="Grupo_306" data-name="Grupo 306" clip-path="url(#clip-path)">
          <line id="Linha_686" data-name="Linha 686" y1="99.99" x2="94.752" transform="translate(-93.203 -96.095)" fill="none" stroke="#bc1751" stroke-width="3.6"/>
        </g>
      </g>
    </g>
    <path id="Caminho_1487" data-name="Caminho 1487" d="M957.763,926.1,924.6,961.085h6.628l29.838-31.5Z" transform="translate(546.14 -371.085)" fill="#bc1751"/>
    <path id="Caminho_1488" data-name="Caminho 1488" d="M863.13,871.1,818.1,918.612h6.651l41.7-44Z" transform="translate(628.382 -328.612)" fill="#bc1751"/>
    <path id="Caminho_1489" data-name="Caminho 1489" d="M182.86,708.8,102.8,793.279h6.628l76.735-80.972Z" transform="translate(1097.229 -203.279)" fill="#bc1751"/>
    <g id="Grupo_309" data-name="Grupo 309" transform="translate(1409.151 456.072)">
      <path id="Caminho_1490" data-name="Caminho 1490" d="M654.2,591.69l3.3,3.485,94.752-99.99-3.3-3.485Z" transform="translate(-654.2 -491.7)" fill="#bc1751"/>
    </g>
    <g id="Grupo_310" data-name="Grupo 310" transform="translate(1261.757 457.803)">
      <line id="Linha_687" data-name="Linha 687" y1="99.99" x2="94.752" fill="none" stroke="#bc1751" stroke-width="3.6"/>
    </g>
    <g id="Grupo_311" data-name="Grupo 311" transform="translate(1176.569 456.448)">
      <path id="Caminho_1491" data-name="Caminho 1491" d="M56.081,491.7-.2,551.079v7.015l59.584-62.91Z" transform="translate(0.2 -491.7)" fill="#bc1751"/>
    </g>
    <g id="Grupo_312" data-name="Grupo 312" transform="translate(1185.338 345.01)">
      <path id="Caminho_1492" data-name="Caminho 1492" d="M188.2,102.29l3.325,3.485,94.729-99.99-3.3-3.485Z" transform="translate(-154.058 -1.708)" fill="#bc1751"/>
      <path id="Caminho_1493" data-name="Caminho 1493" d="M139.7,91.377,226.573-.3h-6.628L136.4,87.869Z" transform="translate(-114.056 0.3)" fill="#bc1751"/>
      <path id="Caminho_1494" data-name="Caminho 1494" d="M89.525,79.032,164.712-.3h-6.628L86.2,75.547Z" transform="translate(-75.29 0.3)" fill="#bc1751"/>
      <path id="Caminho_1495" data-name="Caminho 1495" d="M41.6,66.823,105.2-.3H98.567L38.3,63.316Z" transform="translate(-38.3 0.3)" fill="#bc1751"/>
    </g>
    <rect id="Retângulo_2010" data-name="Retângulo 2010" width="105" height="245" transform="translate(1174 345)" fill="#fff"/>
    <g id="Grupo_313" data-name="Grupo 313" transform="translate(1185.338 406.986)">
      <path id="Caminho_1496" data-name="Caminho 1496" d="M188.2,536.69l3.325,3.485,94.729-99.99-3.3-3.485Z" transform="translate(-154.058 -399.733)" fill="#bc1751"/>
      <path id="Caminho_1497" data-name="Caminho 1497" d="M136.4,482.19l3.3,3.508,94.752-99.99-3.325-3.508Z" transform="translate(-114.056 -357.647)" fill="#bc1751"/>
      <path id="Caminho_1498" data-name="Caminho 1498" d="M86.2,428.09l3.325,3.508,94.752-99.99-3.325-3.508Z" transform="translate(-75.29 -315.869)" fill="#bc1751"/>
      <path id="Caminho_1499" data-name="Caminho 1499" d="M38.3,374.39l3.3,3.508,94.752-99.99-3.3-3.508Z" transform="translate(-38.3 -274.4)" fill="#bc1751"/>
    </g>
    <g id="Grupo_314" data-name="Grupo 314" transform="translate(1185.338 345.01)">
      <path id="Caminho_1500" data-name="Caminho 1500" d="M242.5,157.19l3.325,3.508,94.751-99.99L337.252,57.2Z" transform="translate(-195.99 -44.103)" fill="#bc1751"/>
      <path id="Caminho_1501" data-name="Caminho 1501" d="M188.2,102.29l3.325,3.485,94.729-99.99-3.3-3.485Z" transform="translate(-154.058 -1.708)" fill="#bc1751"/>
      <path id="Caminho_1502" data-name="Caminho 1502" d="M139.7,91.377,226.573-.3h-6.628L136.4,87.869Z" transform="translate(-114.056 0.3)" fill="#bc1751"/>
      <path id="Caminho_1503" data-name="Caminho 1503" d="M89.525,79.032,164.712-.3h-6.628L86.2,75.547Z" transform="translate(-75.29 0.3)" fill="#bc1751"/>
      <path id="Caminho_1504" data-name="Caminho 1504" d="M41.6,66.823,105.2-.3H98.567L38.3,63.316Z" transform="translate(-38.3 0.3)" fill="#bc1751"/>
    </g>
    <g id="Grupo_315" data-name="Grupo 315" transform="translate(1176.569 345.01)">
      <path id="Caminho_1505" data-name="Caminho 1505" d="M56.081,57.2-.2,116.6v7.015l59.584-62.91Z" transform="translate(0.2 -44.103)" fill="#bc1751"/>
      <path id="Caminho_1506" data-name="Caminho 1506" d="M43.714,2.3-.2,48.628v6.992L47.016,5.785Z" transform="translate(0.2 -1.708)" fill="#bc1751"/>
      <path id="Caminho_1507" data-name="Caminho 1507" d="M20.686-.3-.2,21.748v7.015L27.314-.3Z" transform="translate(0.2 0.3)" fill="#bc1751"/>
      <path id="Caminho_1508" data-name="Caminho 1508" d="M-.2-.3V4.392L4.219-.3Z" transform="translate(0.2 0.3)" fill="#bc1751"/>
    </g>
    <rect id="Retângulo_1948" data-name="Retângulo 1948" width="56.418" height="98.942" transform="translate(1176.569 357.014)" fill="none"/>
    <g id="Grupo_316" data-name="Grupo 316" transform="translate(1200.029 505.521)">
      <path id="Caminho_1509" data-name="Caminho 1509" d="M451.53,871.1,406.5,918.612h6.628l41.7-44Z" transform="translate(-337.327 -834.133)" fill="#bc1751"/>
      <path id="Caminho_1510" data-name="Caminho 1510" d="M359.86,816.6,303.1,876.526h6.628l53.457-56.418Z" transform="translate(-257.478 -792.047)" fill="#bc1751"/>
      <path id="Caminho_1511" data-name="Caminho 1511" d="M270.144,762.5,201.7,834.748h6.628l65.142-68.74Z" transform="translate(-179.174 -750.269)" fill="#bc1751"/>
      <path id="Caminho_1512" data-name="Caminho 1512" d="M182.86,708.8,102.8,793.279h6.628l76.735-80.972Z" transform="translate(-102.8 -708.8)" fill="#bc1751"/>
    </g>
    <g id="Grupo_317" data-name="Grupo 317" transform="translate(1185.338 406.578)">
      <path id="Caminho_1513" data-name="Caminho 1513" d="M242.5,591.69l3.325,3.485,94.751-99.99-3.325-3.485Z" transform="translate(-195.99 -442.206)" fill="#bc1751"/>
      <path id="Caminho_1514" data-name="Caminho 1514" d="M188.2,536.69l3.325,3.485,94.729-99.99-3.3-3.485Z" transform="translate(-154.058 -399.733)" fill="#bc1751"/>
      <path id="Caminho_1515" data-name="Caminho 1515" d="M136.4,482.19l3.3,3.508,94.752-99.99-3.325-3.508Z" transform="translate(-114.056 -357.647)" fill="#bc1751"/>
      <path id="Caminho_1516" data-name="Caminho 1516" d="M86.2,428.09l3.325,3.508,94.752-99.99-3.325-3.508Z" transform="translate(-75.29 -315.869)" fill="#bc1751"/>
      <path id="Caminho_1517" data-name="Caminho 1517" d="M38.3,374.39l3.3,3.508,94.752-99.99-3.3-3.508Z" transform="translate(-38.3 -274.4)" fill="#bc1751"/>
    </g>
    <g id="Grupo_318" data-name="Grupo 318" transform="translate(1176.569 407.097)">
      <path id="Caminho_1518" data-name="Caminho 1518" d="M56.081,491.7-.2,551.079v7.015l59.584-62.91Z" transform="translate(0.2 -442.206)" fill="#bc1751"/>
      <path id="Caminho_1519" data-name="Caminho 1519" d="M43.714,436.7-.2,483.028v7.015l47.216-49.858Z" transform="translate(0.2 -399.733)" fill="#bc1751"/>
      <path id="Caminho_1520" data-name="Caminho 1520" d="M31.893,382.2-.2,416.092v6.992l35.418-37.377Z" transform="translate(0.2 -357.647)" fill="#bc1751"/>
      <path id="Caminho_1521" data-name="Caminho 1521" d="M20.481,328.1-.2,349.92v7.015l23.984-25.328Z" transform="translate(0.2 -315.869)" fill="#bc1751"/>
      <path id="Caminho_1522" data-name="Caminho 1522" d="M9.548,274.4-.2,284.7v7.015l13.074-13.8Z" transform="translate(0.2 -274.4)" fill="#bc1751"/>
    </g>
    <g id="Grupo_319" data-name="Grupo 319" transform="translate(1295.244 346.861)">
      <line id="Linha_688" data-name="Linha 688" y1="99.99" x2="94.752" fill="none" stroke="#bc1751" stroke-width="3.6"/>
    </g>
    <g id="Grupo_320" data-name="Grupo 320" transform="translate(1176.569 358.107)">
      <path id="Caminho_1523" data-name="Caminho 1523" d="M56.081,57.2-.2,116.6v7.015l59.584-62.91Z" transform="translate(0.2 -57.2)" fill="#bc1751"/>
    </g>
    <rect id="Retângulo_1949" data-name="Retângulo 1949" width="56.418" height="98.942" transform="translate(1176.569 454.956)" fill="none"/>
    <g id="Grupo_321" data-name="Grupo 321" transform="translate(1200.029 565.993)">
      <path id="Caminho_1524" data-name="Caminho 1524" d="M212.861,1028,201.7,1039.776h6.628l7.835-8.291Z" transform="translate(-179.174 -1015.769)" fill="#bc1751"/>
      <path id="Caminho_1525" data-name="Caminho 1525" d="M125.554,974.3,102.8,998.307h6.628l19.451-20.5Z" transform="translate(-102.8 -974.3)" fill="#bc1751"/>
    </g>
    <path id="Caminho_1526" data-name="Caminho 1526" d="M170.929,757.1,101.3,830.578h6.628l66.3-69.97Z" transform="translate(1098.388 -240.578)" fill="#bc1751"/>
    <path id="Caminho_1527" data-name="Caminho 1527" d="M80.157,702.2-.2,787.021v1.162H5.312l78.17-82.5Z" transform="translate(1176.769 -198.183)" fill="#bc1751"/>
    <path id="Caminho_1528" data-name="Caminho 1528" d="M68.358,647.7-.2,720.062v6.992l71.861-75.847Z" transform="translate(1176.769 -156.096)" fill="#bc1751"/>
    <path id="Caminho_1529" data-name="Caminho 1529" d="M56.947,593.6-.2,653.913v6.992l60.45-63.821Z" transform="translate(1176.769 -114.075)" fill="#bc1751"/>
    <path id="Caminho_1530" data-name="Caminho 1530" d="M46.014,539.9-.2,588.688v6.992l49.54-52.3Z" transform="translate(1176.769 -72.496)" fill="#bc1751"/>
    <g id="Grupo_322" data-name="Grupo 322" transform="translate(1316.33 419.817)">
      <line id="Linha_689" data-name="Linha 689" y1="99.99" x2="94.752" fill="none" stroke="#bc1751" stroke-width="3.6"/>
    </g>
    <g id="Grupo_323" data-name="Grupo 323" transform="translate(1176.569 418.063)">
      <path id="Caminho_1531" data-name="Caminho 1531" d="M95.85,326.208l-3.3-3.508L-.2,420.572v4.236L1.1,426.2Z" transform="translate(0.2 -322.7)" fill="#bc1751"/>
    </g>
    <rect id="Retângulo_1950" data-name="Retângulo 1950" width="92.884" height="74.571" transform="translate(1176.569 515.429)" fill="none"/>
    <rect id="Retângulo_1951" data-name="Retângulo 1951" width="267.751" height="244.764" transform="translate(1201.35 345.236)" fill="#bc1751"/>
    <g id="Grupo_327" data-name="Grupo 327" transform="translate(1290.402 374.55)">
      <g id="Grupo_325" data-name="Grupo 325">
        <path id="Caminho_1533" data-name="Caminho 1533" d="M426.5,298.836l-91.781-.11L334.5,479.971l113.864.138.193-171.706v-9.208l.028-15.467L426.5,283.7ZM368.218,468.392l-22.084-.028.028-13.95,22.084.028Zm68.567.083-22.084-.028.028-13.95,22.084.028Zm.028-27.873-90.623-.11.165-128.973,90.623.11Z" transform="translate(-334.5 -283.7)" fill="#e87f05"/>
      </g>
      <g id="Grupo_326" data-name="Grupo 326" transform="translate(22.663 86.487)">
        <path id="Caminho_1534" data-name="Caminho 1534" d="M472.143,597.455,430.1,597.4l-6.424,12.214-6.948,7.527L416.7,639.2v9.539a3.142,3.142,0,0,0,3.143,3.143h10.063a3.142,3.142,0,0,0,3.143-3.143v-7.858l36.006.055v7.857a3.142,3.142,0,0,0,3.143,3.143h10.063a3.142,3.142,0,0,0,3.143-3.143v-7.857l.028-23.738-6.892-7.5Zm-38.24,4.411,34.407.055,5.762,11.138L428.114,613Zm2.7,33.553-13.7-.028v-7.2l13.7.028Zm42.651.055-13.7-.028v-7.2l13.7.028Z" transform="translate(-416.7 -597.4)" fill="#e87f05"/>
      </g>
    </g>
  </g>
</svg>
